<?xml version="1.0" encoding="UTF-8"?>
<svg id="Layer_1" xmlns="http://www.w3.org/2000/svg" xmlns:xlink="http://www.w3.org/1999/xlink" version="1.1" viewBox="0 0 200.7 30">
  <!-- Generator: Adobe Illustrator 29.2.1, SVG Export Plug-In . SVG Version: 2.1.0 Build 116)  -->
  <defs>
    <style>
      .st0 {
        fill: none;
      }

      .st1 {
        fill: #5c0000;
      }

      .st2 {
        fill: #7ac143;
      }

      .st3 {
        fill: #8177b7;
      }

      .st4 {
        fill: url(#Dégradé_sans_nom_9);
      }

      .st5 {
        fill: url(#Dégradé_sans_nom_6);
      }

      .st6 {
        fill: url(#Dégradé_sans_nom_7);
      }

      .st7 {
        fill: url(#Dégradé_sans_nom_4);
      }

      .st8 {
        fill: url(#Dégradé_sans_nom_5);
      }

      .st9 {
        fill: url(#Dégradé_sans_nom_2);
      }

      .st10 {
        fill: url(#Dégradé_sans_nom_3);
      }

      .st11 {
        fill: url(#Dégradé_sans_nom_8);
      }

      .st12 {
        fill: #231f20;
      }

      .st13 {
        fill: url(#Dégradé_sans_nom_51);
      }

      .st13, .st14, .st15, .st16 {
        stroke: #740006;
        stroke-miterlimit: 10;
        stroke-width: .2px;
      }

      .st17 {
        fill: #969696;
      }

      .st18 {
        fill: #a81e23;
      }

      .st19 {
        fill: url(#Dégradé_sans_nom_441);
      }

      .st20 {
        stroke: #fff;
        stroke-miterlimit: 3.9;
        stroke-width: 0px;
      }

      .st20, .st21 {
        fill: #fff;
      }

      .st22 {
        fill: #656565;
      }

      .st14 {
        fill: url(#Dégradé_sans_nom_512);
      }

      .st15 {
        fill: url(#Dégradé_sans_nom_511);
      }

      .st16 {
        fill: url(#Dégradé_sans_nom_513);
      }

      .st23 {
        fill: #b0b0b0;
      }

      .st24 {
        fill: #f9f9f9;
      }

      .st25 {
        fill: #a81f23;
      }

      .st26 {
        fill: #d31245;
      }

      .st27 {
        fill: url(#Dégradé_sans_nom);
      }

      .st28 {
        fill: #283984;
      }

      .st29 {
        fill: #565656;
      }

      .st30 {
        fill: #7e7e7e;
      }

      .st31 {
        fill: #f47735;
      }

      .st32 {
        fill: #fdb913;
      }

      .st33 {
        fill: #00a0df;
      }

      .st34 {
        fill: url(#Dégradé_sans_nom_19);
      }

      .st35 {
        fill: url(#Dégradé_sans_nom_18);
      }

      .st36 {
        fill: url(#Dégradé_sans_nom_13);
      }

      .st37 {
        fill: url(#Dégradé_sans_nom_10);
      }

      .st38 {
        fill: url(#Dégradé_sans_nom_12);
      }

      .st39 {
        fill: url(#Dégradé_sans_nom_15);
      }

      .st40 {
        fill: url(#Dégradé_sans_nom_11);
      }

      .st41 {
        fill: url(#Dégradé_sans_nom_17);
      }

      .st42 {
        fill: url(#Dégradé_sans_nom_14);
      }

      .st43 {
        fill: url(#Dégradé_sans_nom_16);
      }

      .st44 {
        fill: url(#Dégradé_sans_nom_44);
      }

      .st45 {
        fill: url(#Dégradé_sans_nom_42);
      }

      .st46 {
        fill: url(#Dégradé_sans_nom_41);
      }

      .st47 {
        fill: url(#Dégradé_sans_nom_40);
      }

      .st48 {
        fill: url(#Dégradé_sans_nom_43);
      }

      .st49 {
        fill: url(#Dégradé_sans_nom_28);
      }

      .st50 {
        fill: url(#Dégradé_sans_nom_29);
      }

      .st51 {
        fill: url(#Dégradé_sans_nom_39);
      }

      .st52 {
        fill: url(#Dégradé_sans_nom_38);
      }

      .st53 {
        fill: url(#Dégradé_sans_nom_31);
      }

      .st54 {
        fill: url(#Dégradé_sans_nom_30);
      }

      .st55 {
        fill: url(#Dégradé_sans_nom_33);
      }

      .st56 {
        fill: url(#Dégradé_sans_nom_32);
      }

      .st57 {
        fill: url(#Dégradé_sans_nom_35);
      }

      .st58 {
        fill: url(#Dégradé_sans_nom_34);
      }

      .st59 {
        fill: url(#Dégradé_sans_nom_37);
      }

      .st60 {
        fill: url(#Dégradé_sans_nom_36);
      }

      .st61 {
        fill: url(#Dégradé_sans_nom_26);
      }

      .st62 {
        fill: url(#Dégradé_sans_nom_25);
      }

      .st63 {
        fill: url(#Dégradé_sans_nom_23);
      }

      .st64 {
        fill: url(#Dégradé_sans_nom_20);
      }

      .st65 {
        fill: url(#Dégradé_sans_nom_27);
      }

      .st66 {
        fill: url(#Dégradé_sans_nom_24);
      }

      .st67 {
        fill: url(#Dégradé_sans_nom_22);
      }

      .st68 {
        fill: url(#Dégradé_sans_nom_21);
      }

      .st69 {
        fill: #293a84;
      }

      .st70 {
        fill: #e1e1e1;
      }

      .st71 {
        fill: #461212;
      }

      .st72 {
        fill: #333332;
      }

      .st73 {
        fill: #ec1c24;
      }

      .st74 {
        fill: #c8c8c8;
      }

      .st75 {
        display: none;
      }

      .st76 {
        fill: #dcdcdc;
      }

      .st77 {
        fill: #4c4c4c;
      }
    </style>
    <linearGradient id="Dégradé_sans_nom" data-name="Dégradé sans nom" x1="-107.6" y1="23.1" x2="-100.3" y2="23.1" gradientTransform="translate(0 32) scale(1 -1)" gradientUnits="userSpaceOnUse">
      <stop offset="0" stop-color="#ea2627"/>
      <stop offset="1" stop-color="#bd2227"/>
    </linearGradient>
    <linearGradient id="Dégradé_sans_nom_2" data-name="Dégradé sans nom 2" x1="-136.4" y1="9" x2="-99.6" y2="34.7" gradientTransform="translate(0 32) scale(1 -1)" gradientUnits="userSpaceOnUse">
      <stop offset="0" stop-color="#461212"/>
      <stop offset="0" stop-color="#671516"/>
      <stop offset=".2" stop-color="#9a191d"/>
      <stop offset=".3" stop-color="#c01c22"/>
      <stop offset=".4" stop-color="#d71e25"/>
      <stop offset=".5" stop-color="#df1f26"/>
      <stop offset=".6" stop-color="#d91e25"/>
      <stop offset=".7" stop-color="#c81d23"/>
      <stop offset=".8" stop-color="#ad1b1f"/>
      <stop offset=".9" stop-color="#87171a"/>
      <stop offset="1" stop-color="#561314"/>
      <stop offset="1" stop-color="#461212"/>
    </linearGradient>
    <linearGradient id="Dégradé_sans_nom_3" data-name="Dégradé sans nom 3" x1="-129.8" y1="25.6" x2="-129.8" y2="12.5" gradientTransform="translate(0 32) scale(1 -1)" gradientUnits="userSpaceOnUse">
      <stop offset="0" stop-color="#000"/>
      <stop offset="1" stop-color="#ccc"/>
    </linearGradient>
    <linearGradient id="Dégradé_sans_nom_4" data-name="Dégradé sans nom 4" x1="-132.6" y1="12.6" x2="-126.1" y2="12.6" gradientTransform="translate(0 32) scale(1 -1)" gradientUnits="userSpaceOnUse">
      <stop offset="0" stop-color="#ccc"/>
      <stop offset=".2" stop-color="#a3a3a3"/>
      <stop offset=".5" stop-color="#6f6f6f"/>
      <stop offset=".7" stop-color="#494949"/>
      <stop offset=".9" stop-color="#313131"/>
      <stop offset="1" stop-color="#292929"/>
    </linearGradient>
    <linearGradient id="Dégradé_sans_nom_5" data-name="Dégradé sans nom 5" x1="-110.6" y1="15.5" x2="-110.6" y2="25.6" gradientTransform="translate(0 32) scale(1 -1)" gradientUnits="userSpaceOnUse">
      <stop offset="0" stop-color="#4c4c4c"/>
      <stop offset="1" stop-color="#c8c8c8"/>
    </linearGradient>
    <linearGradient id="Dégradé_sans_nom_6" data-name="Dégradé sans nom 6" x1="-127.8" y1="8.5" x2="-107.9" y2="28.4" gradientTransform="translate(0 32) scale(1 -1)" gradientUnits="userSpaceOnUse">
      <stop offset="0" stop-color="#383838"/>
      <stop offset="0" stop-color="#505050"/>
      <stop offset=".2" stop-color="#8f8f8f"/>
      <stop offset=".3" stop-color="#f1f1f1"/>
      <stop offset=".3" stop-color="#fff"/>
      <stop offset=".7" stop-color="#fff"/>
      <stop offset=".7" stop-color="#fbfbfb"/>
      <stop offset=".8" stop-color="#efefef"/>
      <stop offset=".8" stop-color="#dbdbdb"/>
      <stop offset=".9" stop-color="#bfbfbf"/>
      <stop offset=".9" stop-color="#9b9b9b"/>
      <stop offset="1" stop-color="#707070"/>
      <stop offset="1" stop-color="#525252"/>
    </linearGradient>
    <linearGradient id="Dégradé_sans_nom_7" data-name="Dégradé sans nom 7" x1="-124.5" y1="17.6" x2="-124.5" y2="12.5" gradientTransform="translate(0 32) scale(1 -1)" gradientUnits="userSpaceOnUse">
      <stop offset="0" stop-color="#969696"/>
      <stop offset="1" stop-color="#4c4c4c"/>
    </linearGradient>
    <linearGradient id="Dégradé_sans_nom_8" data-name="Dégradé sans nom 8" x1="-122.6" y1="16.7" x2="-117.7" y2="21.5" gradientTransform="translate(0 32) scale(1 -1)" gradientUnits="userSpaceOnUse">
      <stop offset="0" stop-color="#fff"/>
      <stop offset=".5" stop-color="#4c4c4c"/>
      <stop offset="1" stop-color="#c8c8c8"/>
    </linearGradient>
    <linearGradient id="Dégradé_sans_nom_9" data-name="Dégradé sans nom 9" x1="-116.7" y1="20.6" x2="-110" y2="20.6" gradientTransform="translate(0 32) scale(1 -1)" gradientUnits="userSpaceOnUse">
      <stop offset="0" stop-color="#c8c8c8"/>
      <stop offset=".5" stop-color="#fff"/>
      <stop offset="1" stop-color="#969696"/>
    </linearGradient>
    <linearGradient id="Dégradé_sans_nom_10" data-name="Dégradé sans nom 10" x1="-120.2" y1="25.4" x2="-108.6" y2="25.4" gradientTransform="translate(0 32) scale(1 -1)" gradientUnits="userSpaceOnUse">
      <stop offset="0" stop-color="#969696"/>
      <stop offset="1" stop-color="#e1e1e1"/>
    </linearGradient>
    <linearGradient id="Dégradé_sans_nom_11" data-name="Dégradé sans nom 11" x1="-119" y1="30" x2="-116.5" y2="27.5" gradientTransform="translate(0 32) scale(1 -1)" gradientUnits="userSpaceOnUse">
      <stop offset="0" stop-color="#7e7e7e"/>
      <stop offset="0" stop-color="gray"/>
      <stop offset="0" stop-color="#898989"/>
      <stop offset=".1" stop-color="#979797"/>
      <stop offset=".1" stop-color="#ababab"/>
      <stop offset=".2" stop-color="#c5c5c5"/>
      <stop offset=".2" stop-color="#e4e4e4"/>
      <stop offset=".2" stop-color="#fff"/>
      <stop offset=".2" stop-color="#ececec"/>
      <stop offset=".3" stop-color="#d1d1d1"/>
      <stop offset=".3" stop-color="#bbb"/>
      <stop offset=".4" stop-color="#aaa"/>
      <stop offset=".5" stop-color="#9f9f9f"/>
      <stop offset=".6" stop-color="#989898"/>
      <stop offset="1" stop-color="#969696"/>
    </linearGradient>
    <linearGradient id="Dégradé_sans_nom_12" data-name="Dégradé sans nom 12" x1="-118.3" y1="28.2" x2="-113.4" y2="33" gradientTransform="translate(0 32) scale(1 -1)" gradientUnits="userSpaceOnUse">
      <stop offset="0" stop-color="#7e7e7e"/>
      <stop offset="1" stop-color="#c8c8c8"/>
    </linearGradient>
    <linearGradient id="Dégradé_sans_nom_13" data-name="Dégradé sans nom 13" x1="-109.9" y1="30.7" x2="-106" y2="30.7" gradientTransform="translate(0 32) scale(1 -1)" gradientUnits="userSpaceOnUse">
      <stop offset="0" stop-color="#c8c8c8"/>
      <stop offset="1" stop-color="#7e7e7e"/>
    </linearGradient>
    <linearGradient id="Dégradé_sans_nom_14" data-name="Dégradé sans nom 14" x1="-117" y1="29.1" x2="-113" y2="29.1" gradientTransform="translate(0 32) scale(1 -1)" gradientUnits="userSpaceOnUse">
      <stop offset="0" stop-color="#969696"/>
      <stop offset=".6" stop-color="#fff"/>
      <stop offset="1" stop-color="#969696"/>
    </linearGradient>
    <linearGradient id="Dégradé_sans_nom_15" data-name="Dégradé sans nom 15" x1="-105.4" y1="31.3" x2="-98.5" y2="31.3" gradientTransform="translate(0 32) scale(1 -1)" gradientUnits="userSpaceOnUse">
      <stop offset="0" stop-color="#969696"/>
      <stop offset="1" stop-color="#e1e1e1"/>
    </linearGradient>
    <linearGradient id="Dégradé_sans_nom_16" data-name="Dégradé sans nom 16" x1="-122.5" y1="20.2" x2="-109.5" y2="38.7" gradientTransform="translate(0 32) scale(1 -1)" gradientUnits="userSpaceOnUse">
      <stop offset="0" stop-color="#969696"/>
      <stop offset=".3" stop-color="#fff"/>
      <stop offset=".6" stop-color="#fff"/>
      <stop offset="1" stop-color="#656565"/>
    </linearGradient>
    <linearGradient id="Dégradé_sans_nom_17" data-name="Dégradé sans nom 17" x1="-128.4" y1="29" x2="-126.2" y2="29" gradientTransform="translate(0 32) scale(1 -1)" gradientUnits="userSpaceOnUse">
      <stop offset="0" stop-color="#fff"/>
      <stop offset="1" stop-color="#656565"/>
    </linearGradient>
    <clipPath id="clippath">
      <path class="st0" d="M-143.4,5.8s0,0,0,0,0,0,0,0,0,0,0,0c0,0,0,0,0,0Z"/>
    </clipPath>
    <linearGradient id="Dégradé_sans_nom_18" data-name="Dégradé sans nom 18" x1="-120.8" y1=".9" x2="-120.7" y2="37.7" gradientTransform="translate(0 32) scale(1 -1)" gradientUnits="userSpaceOnUse">
      <stop offset="0" stop-color="#fff"/>
      <stop offset="1" stop-color="#d4d4d4"/>
    </linearGradient>
    <linearGradient id="Dégradé_sans_nom_19" data-name="Dégradé sans nom 19" x1="-160.9" y1="1.8" x2="-160.8" y2="11.7" gradientTransform="translate(0 32) scale(1 -1)" gradientUnits="userSpaceOnUse">
      <stop offset="0" stop-color="#1e2557"/>
      <stop offset="0" stop-color="#1e2658"/>
      <stop offset=".5" stop-color="#204d8b"/>
      <stop offset=".8" stop-color="#2265aa"/>
      <stop offset="1" stop-color="#226eb6"/>
    </linearGradient>
    <linearGradient id="Dégradé_sans_nom_20" data-name="Dégradé sans nom 20" x1="-154.3" y1="1.9" x2="-154.2" y2="11.5" gradientTransform="translate(0 32) scale(1 -1)" gradientUnits="userSpaceOnUse">
      <stop offset="0" stop-color="#1e2557"/>
      <stop offset="0" stop-color="#1e2658"/>
      <stop offset=".5" stop-color="#204d8b"/>
      <stop offset=".8" stop-color="#2265aa"/>
      <stop offset="1" stop-color="#226eb6"/>
    </linearGradient>
    <linearGradient id="Dégradé_sans_nom_21" data-name="Dégradé sans nom 21" x1="-148.4" y1="2" x2="-148.3" y2="11.4" gradientTransform="translate(0 32) scale(1 -1)" gradientUnits="userSpaceOnUse">
      <stop offset="0" stop-color="#1e2557"/>
      <stop offset="0" stop-color="#1e2658"/>
      <stop offset=".5" stop-color="#204d8b"/>
      <stop offset=".8" stop-color="#2265aa"/>
      <stop offset="1" stop-color="#226eb6"/>
    </linearGradient>
    <linearGradient id="Dégradé_sans_nom_22" data-name="Dégradé sans nom 22" x1="-142.3" y1="2" x2="-142.2" y2="11.4" gradientTransform="translate(0 32) scale(1 -1)" gradientUnits="userSpaceOnUse">
      <stop offset="0" stop-color="#1e2557"/>
      <stop offset="0" stop-color="#1e2658"/>
      <stop offset=".5" stop-color="#204d8b"/>
      <stop offset=".8" stop-color="#2265aa"/>
      <stop offset="1" stop-color="#226eb6"/>
    </linearGradient>
    <linearGradient id="Dégradé_sans_nom_23" data-name="Dégradé sans nom 23" x1="-138" y1="2" x2="-137.9" y2="11.4" gradientTransform="translate(0 32) scale(1 -1)" gradientUnits="userSpaceOnUse">
      <stop offset="0" stop-color="#1e2557"/>
      <stop offset="0" stop-color="#1e2658"/>
      <stop offset=".5" stop-color="#204d8b"/>
      <stop offset=".8" stop-color="#2265aa"/>
      <stop offset="1" stop-color="#226eb6"/>
    </linearGradient>
    <linearGradient id="Dégradé_sans_nom_24" data-name="Dégradé sans nom 24" x1="-133.3" y1="1.9" x2="-133.2" y2="11.5" gradientTransform="translate(0 32) scale(1 -1)" gradientUnits="userSpaceOnUse">
      <stop offset="0" stop-color="#1e2557"/>
      <stop offset="0" stop-color="#1e2658"/>
      <stop offset=".5" stop-color="#204d8b"/>
      <stop offset=".8" stop-color="#2265aa"/>
      <stop offset="1" stop-color="#226eb6"/>
    </linearGradient>
    <linearGradient id="Dégradé_sans_nom_25" data-name="Dégradé sans nom 25" x1="-126.5" y1="1.8" x2="-126.4" y2="11.7" gradientTransform="translate(0 32) scale(1 -1)" gradientUnits="userSpaceOnUse">
      <stop offset="0" stop-color="#1e2557"/>
      <stop offset="0" stop-color="#1e2658"/>
      <stop offset=".5" stop-color="#204d8b"/>
      <stop offset=".8" stop-color="#2265aa"/>
      <stop offset="1" stop-color="#226eb6"/>
    </linearGradient>
    <linearGradient id="Dégradé_sans_nom_26" data-name="Dégradé sans nom 26" x1="-117" y1="1.9" x2="-116.9" y2="11.4" gradientTransform="translate(0 32) scale(1 -1)" gradientUnits="userSpaceOnUse">
      <stop offset="0" stop-color="#1e2557"/>
      <stop offset="0" stop-color="#1e2658"/>
      <stop offset=".5" stop-color="#204d8b"/>
      <stop offset=".8" stop-color="#2265aa"/>
      <stop offset="1" stop-color="#226eb6"/>
    </linearGradient>
    <linearGradient id="Dégradé_sans_nom_27" data-name="Dégradé sans nom 27" x1="-110.8" y1="1.9" x2="-110.7" y2="11.5" gradientTransform="translate(0 32) scale(1 -1)" gradientUnits="userSpaceOnUse">
      <stop offset="0" stop-color="#1e2557"/>
      <stop offset="0" stop-color="#1e2658"/>
      <stop offset=".5" stop-color="#204d8b"/>
      <stop offset=".8" stop-color="#2265aa"/>
      <stop offset="1" stop-color="#226eb6"/>
    </linearGradient>
    <linearGradient id="Dégradé_sans_nom_28" data-name="Dégradé sans nom 28" x1="-104.8" y1="1.8" x2="-104.7" y2="11.7" gradientTransform="translate(0 32) scale(1 -1)" gradientUnits="userSpaceOnUse">
      <stop offset="0" stop-color="#1e2557"/>
      <stop offset="0" stop-color="#1e2658"/>
      <stop offset=".5" stop-color="#204d8b"/>
      <stop offset=".8" stop-color="#2265aa"/>
      <stop offset="1" stop-color="#226eb6"/>
    </linearGradient>
    <linearGradient id="Dégradé_sans_nom_29" data-name="Dégradé sans nom 29" x1="-98.7" y1="1.8" x2="-98.5" y2="11.5" gradientTransform="translate(0 32) scale(1 -1)" gradientUnits="userSpaceOnUse">
      <stop offset="0" stop-color="#1e2557"/>
      <stop offset="0" stop-color="#1e2658"/>
      <stop offset=".5" stop-color="#204d8b"/>
      <stop offset=".8" stop-color="#2265aa"/>
      <stop offset="1" stop-color="#226eb6"/>
    </linearGradient>
    <linearGradient id="Dégradé_sans_nom_30" data-name="Dégradé sans nom 30" x1="-92.6" y1="2" x2="-92.5" y2="11.4" gradientTransform="translate(0 32) scale(1 -1)" gradientUnits="userSpaceOnUse">
      <stop offset="0" stop-color="#1e2557"/>
      <stop offset="0" stop-color="#1e2658"/>
      <stop offset=".5" stop-color="#204d8b"/>
      <stop offset=".8" stop-color="#2265aa"/>
      <stop offset="1" stop-color="#226eb6"/>
    </linearGradient>
    <linearGradient id="Dégradé_sans_nom_31" data-name="Dégradé sans nom 31" x1="-88" y1="2" x2="-87.9" y2="11.4" gradientTransform="translate(0 32) scale(1 -1)" gradientUnits="userSpaceOnUse">
      <stop offset="0" stop-color="#1e2557"/>
      <stop offset="0" stop-color="#1e2658"/>
      <stop offset=".5" stop-color="#204d8b"/>
      <stop offset=".8" stop-color="#2265aa"/>
      <stop offset="1" stop-color="#226eb6"/>
    </linearGradient>
    <linearGradient id="Dégradé_sans_nom_32" data-name="Dégradé sans nom 32" x1="-81.7" y1="1.8" x2="-81.6" y2="11.7" gradientTransform="translate(0 32) scale(1 -1)" gradientUnits="userSpaceOnUse">
      <stop offset="0" stop-color="#1e2557"/>
      <stop offset="0" stop-color="#1e2658"/>
      <stop offset=".5" stop-color="#204d8b"/>
      <stop offset=".8" stop-color="#2265aa"/>
      <stop offset="1" stop-color="#226eb6"/>
    </linearGradient>
    <linearGradient id="Dégradé_sans_nom_33" data-name="Dégradé sans nom 33" x1="-77.6" y1="3.2" x2="-77.6" y2="4.9" gradientTransform="translate(0 32) scale(1 -1)" gradientUnits="userSpaceOnUse">
      <stop offset="0" stop-color="#1e2557"/>
      <stop offset="0" stop-color="#1e2658"/>
      <stop offset=".5" stop-color="#204d8b"/>
      <stop offset=".8" stop-color="#2265aa"/>
      <stop offset="1" stop-color="#226eb6"/>
    </linearGradient>
    <linearGradient id="Dégradé_sans_nom_34" data-name="Dégradé sans nom 34" x1="-87.7" y1="9.4" x2="-87.7" y2="37.6" gradientTransform="translate(0 32) scale(1 -1)" gradientUnits="userSpaceOnUse">
      <stop offset="0" stop-color="#213f80"/>
      <stop offset=".5" stop-color="#2c5fab"/>
      <stop offset=".8" stop-color="#24488c"/>
      <stop offset="1" stop-color="#213f80"/>
    </linearGradient>
    <linearGradient id="Dégradé_sans_nom_35" data-name="Dégradé sans nom 35" x1="-164" y1="12.1" x2="-100.1" y2="12.1" gradientTransform="translate(0 32) scale(1 -1)" gradientUnits="userSpaceOnUse">
      <stop offset="0" stop-color="#e82929"/>
      <stop offset="1" stop-color="#85181a"/>
    </linearGradient>
    <linearGradient id="Dégradé_sans_nom_36" data-name="Dégradé sans nom 36" x1="-156.1" y1="15.1" x2="-155.9" y2="28.9" gradientTransform="translate(0 32) scale(1 -1)" gradientUnits="userSpaceOnUse">
      <stop offset="0" stop-color="#213f80"/>
      <stop offset=".5" stop-color="#2c5fab"/>
      <stop offset=".8" stop-color="#24488c"/>
      <stop offset="1" stop-color="#213f80"/>
    </linearGradient>
    <linearGradient id="Dégradé_sans_nom_37" data-name="Dégradé sans nom 37" x1="-141.1" y1="15.1" x2="-140.9" y2="28.9" gradientTransform="translate(0 32) scale(1 -1)" gradientUnits="userSpaceOnUse">
      <stop offset="0" stop-color="#213f80"/>
      <stop offset=".5" stop-color="#2c5fab"/>
      <stop offset=".8" stop-color="#24488c"/>
      <stop offset="1" stop-color="#213f80"/>
    </linearGradient>
    <linearGradient id="Dégradé_sans_nom_38" data-name="Dégradé sans nom 38" x1="-124.5" y1="15.1" x2="-124.4" y2="28.9" gradientTransform="translate(0 32) scale(1 -1)" gradientUnits="userSpaceOnUse">
      <stop offset="0" stop-color="#213f80"/>
      <stop offset=".5" stop-color="#2c5fab"/>
      <stop offset=".8" stop-color="#24488c"/>
      <stop offset="1" stop-color="#213f80"/>
    </linearGradient>
    <linearGradient id="Dégradé_sans_nom_39" data-name="Dégradé sans nom 39" x1="-107.1" y1="14.9" x2="-107" y2="29.3" gradientTransform="translate(0 32) scale(1 -1)" gradientUnits="userSpaceOnUse">
      <stop offset="0" stop-color="#213f80"/>
      <stop offset=".5" stop-color="#2c5fab"/>
      <stop offset=".8" stop-color="#24488c"/>
      <stop offset="1" stop-color="#213f80"/>
    </linearGradient>
    <linearGradient id="Dégradé_sans_nom_40" data-name="Dégradé sans nom 40" x1="-88.9" y1="7.6" x2="-86.4" y2="34.6" gradientTransform="translate(0 32) scale(1 -1)" gradientUnits="userSpaceOnUse">
      <stop offset="0" stop-color="#fff"/>
      <stop offset="1" stop-color="#dcdbdc"/>
    </linearGradient>
    <linearGradient id="Dégradé_sans_nom_41" data-name="Dégradé sans nom 41" x1="-98.3" y1="21" x2="-78.1" y2="21" gradientTransform="translate(0 32) scale(1 -1)" gradientUnits="userSpaceOnUse">
      <stop offset="0" stop-color="#df3631"/>
      <stop offset="1" stop-color="#7f1517"/>
    </linearGradient>
    <linearGradient id="Dégradé_sans_nom_42" data-name="Dégradé sans nom 42" x1="-98.6" y1="23.2" x2="-77.8" y2="23.2" gradientTransform="translate(0 32) scale(1 -1)" gradientUnits="userSpaceOnUse">
      <stop offset="0" stop-color="#e82929"/>
      <stop offset="1" stop-color="#85181a"/>
    </linearGradient>
    <linearGradient id="Dégradé_sans_nom_43" data-name="Dégradé sans nom 43" x1="-88.6" y1="31.6" x2="-88.7" y2="9.8" gradientTransform="translate(0 32) scale(1 -1)" gradientUnits="userSpaceOnUse">
      <stop offset="0" stop-color="#919395"/>
      <stop offset=".3" stop-color="#d2d2d3"/>
      <stop offset=".5" stop-color="#ededed"/>
      <stop offset=".6" stop-color="#e6e6e7"/>
      <stop offset=".8" stop-color="#d3d4d5"/>
      <stop offset="1" stop-color="#b8b9bc"/>
    </linearGradient>
    <linearGradient id="Dégradé_sans_nom_51" data-name="Dégradé sans nom 51" x1="54" y1="5.5" x2="50.7" y2="27.8" gradientUnits="userSpaceOnUse">
      <stop offset="0" stop-color="#520000"/>
      <stop offset=".1" stop-color="#650000"/>
      <stop offset=".4" stop-color="#910000"/>
      <stop offset=".6" stop-color="#b10000"/>
      <stop offset=".9" stop-color="#c50000"/>
      <stop offset="1" stop-color="#c00"/>
    </linearGradient>
    <linearGradient id="Dégradé_sans_nom_511" data-name="Dégradé sans nom 51" x1="87" y1="10.4" x2="83.8" y2="32.6" xlink:href="#Dégradé_sans_nom_51"/>
    <linearGradient id="Dégradé_sans_nom_512" data-name="Dégradé sans nom 51" x1="103.7" y1="12.8" x2="100.4" y2="35.1" xlink:href="#Dégradé_sans_nom_51"/>
    <linearGradient id="Dégradé_sans_nom_513" data-name="Dégradé sans nom 51" x1="114.3" y1="14.4" x2="111" y2="36.6" xlink:href="#Dégradé_sans_nom_51"/>
    <linearGradient id="Dégradé_sans_nom_44" data-name="Dégradé sans nom 44" x1="65.1" y1="19.4" x2="65.1" y2="5.7" gradientTransform="translate(0 32) scale(1 -1)" gradientUnits="userSpaceOnUse">
      <stop offset="0" stop-color="#520000"/>
      <stop offset=".1" stop-color="#650000"/>
      <stop offset=".4" stop-color="#910000"/>
      <stop offset=".6" stop-color="#b10000"/>
      <stop offset=".9" stop-color="#c50000"/>
      <stop offset="1" stop-color="#c00"/>
    </linearGradient>
    <linearGradient id="Dégradé_sans_nom_441" data-name="Dégradé sans nom 44" x1="70.9" y1="19.8" x2="70.9" y2="6.1" xlink:href="#Dégradé_sans_nom_44"/>
  </defs>
  <g class="st75">
    <g>
      <path class="st18" d="M-33.5,27.9c5.8.4,11.4-5.5,11.4-12.7s-5.6-13.1-12.5-13.1h-171.5c-6.9,0-12.5,5.9-12.5,13.1s5.6,13.1,13.6,12.7H-33.5Z"/>
      <path class="st76" d="M-34.6,2.1c6.9,0,12.5,5.9,12.5,13.1s-5.3,12.7-10.9,12.7h-172.7c-7.6,0-12.9-5.7-12.9-12.7,0-7.2,5.6-13.1,12.5-13.1H-34.6M-34.6,0h-171.5c-8,0-14.6,6.8-14.6,15.2s1.5,7.7,4.2,10.5c2.8,2.8,6.6,4.3,10.8,4.3H-33c3.3,0,6.6-1.6,9.1-4.4s3.9-6.5,3.9-10.4C-20,6.8-26.6,0-34.6,0h0Z"/>
    </g>
    <path class="st21" d="M-204,20.7l.6-3.2h4.6l-.5,2.5c-.6,3.5-2.9,5.2-6.8,5.2s-5.4-1.8-4.7-5.5l1.6-8.6c.7-3.7,2.9-5.5,6.7-5.5s3.2.4,4.1,1.1,1.1,2.1.8,4l-.4,2.1h-4.6l.5-2.6c.2-1-.1-1.5-1-1.5s-1.3.5-1.4,1.5l-1.9,10.6c-.2,1,.1,1.5.9,1.5.8-.1,1.3-.6,1.5-1.6ZM-191.1,5.9l-3.5,19h-4.4l3.5-19s4.4,0,4.4,0ZM-185.5,5.9l-.5,2.7h-4.4l.5-2.7s4.4,0,4.4,0ZM-186.2,9.7l-2.8,15.3h-4.4l2.8-15.3h4.4ZM-175.4,15.1h-4.4l.3-1.7c0-.7,0-1.1-.7-1.1s-.9.4-1.1,1.1l-1.4,8c0,.7,0,1.1.7,1.1s1-.4,1.1-1.1l.4-2.4h4.4l-.4,2.2c-.2,1.4-.9,2.4-1.9,3s-2.4,1-4.1,1c-3.5,0-5-1.4-4.4-4.2l1.3-7.1c.2-1.3.9-2.3,2-3.1s2.4-1.2,4-1.2,2.9.3,3.7,1,1.1,1.8.8,3.3c0,0-.3,1.2-.3,1.2ZM-171.6,24.9h-4.4l3.5-19h4.4l-1.9,10.7,3.5-7h4.2l-3.7,6.8,1.2,8.4h-4.4l-.8-8s-1.6,8.1-1.6,8.1ZM-50,24h-1.5l.3-1.4h1.5l-.3,1.4ZM-43.7,22.2c-.2.5-.9,2-2.8,2s-2.1-1.5-1.9-2.5c.4-1.6,1.4-2.8,3.1-2.8s2.1.4,1.9,2h-1.4c0-.3-.1-.9-.7-.8-.9,0-1.3.8-1.4,1.5-.1.6-.3,1.7.7,1.7s1.1-.7,1.1-.9h1.4v-.2ZM-39,21.5c-.1.7-.5,1.6-1.6,1.6s-1.1-.9-.9-1.6c.1-.6.5-1.5,1.6-1.5,1.1-.1,1.1.8.9,1.5ZM-37.5,21.5c.4-1.8-.7-2.7-2.1-2.7s-2.9.8-3.3,2.7c-.4,1.8.7,2.7,2.1,2.7,1.4-.1,2.9-.9,3.3-2.7ZM-29.6,24h-1.4l.7-3.1c.2-.8-.1-1-.5-1-.7,0-1,.4-1.2,1l-.7,3.1h-1.4l.7-3.1c.1-.4.2-1-.6-1s-1,.4-1.1,1l-.7,3.1h-1.4l1.1-5.1h1.3l-.2.7c.3-.3.8-.9,1.7-.9s1.1.3,1.3.8c.2-.2.7-.8,1.6-.8s1.7.6,1.5,1.7l-.7,3.6h0Z"/>
    <path class="st21" d="M-129.7,15.5l-1.7,8.8h-4.8l3.6-18.4h4.8l-1.3,6.8h2.4l1.3-6.8h4.7l-3.6,18.4h-4.7l1.7-8.8s-2.4,0-2.4,0ZM-115.1,12c.6,0,.9.3.7,1l-1.5,7.7c0,.7-.5,1-1.1,1s-.8-.3-.7-1l1.5-7.7c.2-.6.5-1,1.1-1ZM-110.8,10.3c-.9-.6-2.2-.9-3.8-.9s-3.5.4-4.5,1.2-1.6,1.8-1.8,3l-1.4,7c-.3,1.3,0,2.3,1,2.9.9.7,2.1,1,3.7,1s3.1-.4,4.2-1.1,1.8-1.7,2-2.8l1.4-7c.4-1.6,0-2.7-.8-3.3h0ZM-99.8,24.3h-4.5l.4-1.8c-.8,1.3-2,2-3.7,2s-1.6-.2-2.1-.7-.6-1.4-.3-2.7l2.3-11.6h4.5l-2,10.3c0,.5,0,.8,0,1s.3.3.6.3c.6,0,1.1-.4,1.2-1.3l2-10.3h4.5s-2.9,14.8-2.9,14.8ZM-85.3,13.1l-.3,1.7h-4.5l.3-1.6c.1-.7-.1-1.1-.7-1.1s-1,.4-1.1,1.1c-.1.6.1,1.1.6,1.4.7.4,1.4.8,2.2,1.3s1.4,1,1.8,1.6c.4.6.5,1.5.3,2.6-.6,3-2.8,4.5-6.6,4.5s-2.7-.3-3.5-.9-1.1-1.5-.9-2.8l.5-2.3h4.5l-.4,2.2c0,.7,0,1.1.7,1.1s1-.4,1.2-1.1c.1-.7,0-1.2-.3-1.5s-1.1-.9-2.3-1.5c-1.1-.6-1.9-1.1-2.2-1.7-.4-.6-.5-1.4-.3-2.4.3-1.4.9-2.4,2-3.1,1.1-.7,2.4-1,4.1-1s3.2.3,4,.9c.8.4,1.1,1.3.9,2.6ZM-84.5,21.3l1.8-9.1h-1.5l.5-2.7h1.5l.5-2.7h4.5l-.5,2.7h2l-.5,2.7h-2l-1.6,8.1c-.1.5-.1.9,0,1.1s.4.3.9.3h.9l-.5,2.7h-3.7c-1,0-1.7-.2-2-.7-.5-.6-.5-1.4-.3-2.4h0ZM-69.9,12c.6,0,.9.3.7,1l-1.5,7.7c-.1.7-.5,1-1.1,1s-.8-.3-.7-1l1.5-7.7c.1-.6.5-1,1.1-1ZM-65.6,10.3c-.9-.6-2.2-.9-3.8-.9s-3.5.4-4.5,1.2-1.6,1.8-1.8,3l-1.4,7c-.3,1.3.1,2.3,1,2.9.9.7,2.1,1,3.7,1s3.1-.4,4.2-1.1c1.1-.7,1.8-1.7,2-2.8l1.4-7c.4-1.6.1-2.7-.8-3.3h0ZM-62.6,9.5h4.5l-.4,1.8c.8-1.3,2-2,3.7-2s1.6.3,2,.8c.5.5.6,1.4.3,2.6l-2.3,11.6h-4.5l2-10.3c.1-.5.1-.9,0-1.1-.1-.2-.3-.3-.7-.3-.6,0-1,.5-1.2,1.3l-2,10.3h-4.5s3.1-14.7,3.1-14.7Z"/>
    <path class="st28" d="M-160.3,2.1h22.2v25.8h-22.2V2.1Z"/>
    <path class="st21" d="M-141,22.4l-21.1,4.6,12.2-13.3,4,1.8-.6-4,4.6-3.4-5.1,1.2-.4-3-2.9,3.7-5,1.1,3.1,1.4-.7,1-5.9,1.3c.2-1,.5-2.1.9-3,.6-1.4,1.5-2.6,2.3-3.6.6-.7,1-1.2,1.8-1.8.8-.7,1.2-.9,2.3-1.5,1-.5,1.8-.8,2.8-1.1,1.9-.7,4.9-.9,6.4-.4,1,.3,1.7.7,2.3,1.6.4.6.5.9.6,1.6,0,.6.2.9,0,1.5,0,.8-.2,1.4-.5,2.1-.5,1.1-1.7,2.6-2.6,3.6-.7.8-1.9,1.8-3,2.9-.6.5-.9.8-1.4,1.3l7.7-1.7s-1.9,6.1-1.9,6.1Z"/>
    <path class="st21" d="M-139.8,27.4c.7,0,1.1-.6,1.1-1.2,0-.8-.8-1.1-1.2-1,.3-.2.8-1,0-1.7-.5-.5-1.2-.3-1.4-.1,0-.4,0-1.3-.9-1.4s-1.1.4-1.2.7c0-.4-.5-.7-1.1-.7-.8.1-1.1.9-1,1.4-.3-.2-.9-.3-1.4.1-.6.6-.3,1.5,0,1.7-.4,0-1,.2-1.1.9,0,.8.5,1.3,1.1,1.3,0,0,6.9,0,6.9,0Z"/>
    <path class="st31" d="M-145.2,24l1.3,2.9-2.6-1.8c-.7-.4-.5-1.2-.2-1.5.5-.4,1.2-.3,1.5.4Z"/>
    <path class="st26" d="M-143.4,23.3l-.5,3.3-1.3-3.1c-.3-.8.4-1.3.8-1.3.5-.1,1.1.3,1,1.1Z"/>
    <path class="st3" d="M-141.4,23.5l-1.3,3.1-.4-2.8c0-.4.2-.4.3-.5,0-.1-.2-.1-.2-.1h-.3c0-.7.5-1.1,1-1,.6,0,1.1.6.9,1.3Z"/>
    <path class="st33" d="M-140.1,25.1l-2.6,1.8,1.2-2.9c.4-.9,1.3-.7,1.6-.4.3.4.4,1.1-.2,1.5Z"/>
    <path class="st2" d="M-139.8,27.3h-3.1l2.5-1.7c.6-.4,1.3,0,1.4.5.2.5-.2,1.2-.8,1.2Z"/>
    <path class="st32" d="M-147.7,26c.2-.6.9-.8,1.5-.5l2.5,1.7h-3c-.7.1-1.2-.5-1-1.2Z"/>
  </g>
  <g class="st75">
    <path class="st25" d="M-130.3,0h21.6v5.2h-21.6V0Z"/>
    <path class="st69" d="M-130.3,4.9h21.6v25.1h-21.6V4.9Z"/>
    <g>
      <path class="st20" d="M-111.5,24.6l-20.6,4.5,11.9-13,3.9,1.7-.6-3.9,4.5-3.3-4.9,1.2-.4-2.8-2.9,3.6-4.9,1.1,3,1.4-.7,1-5.7,1.3c.2-1,.5-2,.9-2.9.6-1.4,1.5-2.5,2.3-3.5.6-.7,1-1.1,1.8-1.8s1.2-.9,2.2-1.5c1-.6,1.8-.9,2.8-1.2,1.9-.7,4.8-.9,6.2-.4.9.3,1.6.7,2.2,1.6.4.5.5.9.6,1.6,0,.6.2.9,0,1.5,0,.8-.2,1.3-.5,2-.5,1.1-1.7,2.5-2.6,3.5-.7.8-1.9,1.8-3,2.8-.5.5-.9.8-1.4,1.2l7.5-1.7s-1.7,6-1.7,6Z"/>
      <path class="st21" d="M-110.3,29.5c.7,0,1.1-.6,1.1-1.2,0-.8-.8-1-1.1-1,.3-.2.7-1,0-1.6-.5-.5-1.2-.3-1.4-.1,0-.4,0-1.2-.9-1.4-.7-.1-1.1.4-1.2.7,0-.3-.5-.7-1.1-.7-.8.1-1.1.9-.9,1.3-.3-.2-.9-.3-1.4.1-.6.6-.3,1.5,0,1.7-.4,0-1,.2-1.1.9,0,.8.5,1.3,1.1,1.3,0,0,6.7,0,6.7,0Z"/>
      <path class="st31" d="M-115.5,26.2l1.2,2.9-2.6-1.8c-.6-.4-.5-1.2-.2-1.5.6-.4,1.3-.2,1.6.4Z"/>
      <path class="st26" d="M-113.8,25.6l-.5,3.2-1.3-3c-.3-.8.3-1.3.8-1.3.5-.1,1.1.3,1,1.1Z"/>
      <path class="st3" d="M-111.9,25.7l-1.3,3-.4-2.8c0-.4.2-.4.3-.5,0-.1,0-.1,0-.1h-.2c0-.7.5-1,1-1,.5.2,1,.7.7,1.4Z"/>
      <path class="st33" d="M-110.5,27.3l-2.6,1.8,1.2-2.8c.4-.9,1.2-.7,1.5-.4.4.3.5,1,0,1.4Z"/>
      <path class="st2" d="M-110.3,29.4h-3l2.4-1.7c.6-.4,1.2,0,1.4.5.2.6-.2,1.2-.8,1.2Z"/>
      <path class="st32" d="M-118,28.1c.2-.6.9-.8,1.4-.4l2.4,1.7h-2.9c-.6,0-1.1-.6-.9-1.3Z"/>
    </g>
    <path class="st21" d="M-128,2h.5l1.4-1.3h1.4l-1.9,1.8,2.2,1.8h-1.5l-1.6-1.3h-.5v1.3h-1.1V.7h1.1v1.3ZM-121.1.7h.6c0,0,.3.1.4.1.2.1.3.2.4.4v.8c0,.5,0,.8-.2,1-.2.2-.4.3-.8.3h-2v.9h-1.1V.7h2.7ZM-121.2,1.6h-1.6v.9h1.6c0,0,.2,0,.3,0,0,0,0-.2,0-.4s0-.3,0-.3c0-.1,0-.1-.3-.1ZM-116.3.7c.6,0,.9.1,1.2.3.2.2.3.5.3.9s0,.5,0,.7c0,0-.2.3-.5.3.2,0,.3,0,.4.2,0,0,0,.3,0,.4v.7h-1.1v-.5c0,0,0-.2,0-.3s-.2,0-.4,0h-1.6v.9h-1.1V.7s2.9,0,2.9,0ZM-116.3,1.6h-1.7v.9h1.7c0,0,.2,0,.3,0,0,0,0-.2,0-.4s0-.2,0-.3c0-.1-.2-.1-.3-.1ZM-110.8,2c0-.2,0-.3,0-.3,0-.1-.2-.1-.4-.1h-.9c-.4,0-.6,0-.7.1s-.2.3-.2.6v.5c0,.3,0,.4.2.5s.4,0,.7,0h.6c.3,0,.6,0,.7,0s.2-.2.2-.4h1.1v.2c0,.2,0,.4,0,.6,0,0,0,.3-.3.4,0,0-.3,0-.5.2-.2,0-.5,0-.9,0h-1.2c-.4,0-.6,0-.8,0-.2,0-.3,0-.4-.2s-.2-.3-.3-.4c0-.2,0-.4,0-.6v-1.1c0-.5,0-.9.4-1.1.2-.2.7-.3,1.3-.3h1.2c.4,0,.7,0,.9.1.2,0,.3.1.4.2,0,.1.2.2.2.3,0,.1,0,.3,0,.5v.2h-1.1,0Z"/>
  </g>
  <g class="st75">
    <path class="st12" d="M-176.7,17.8H-63.9v12.2h-112.8v-12.2Z"/>
    <path class="st12" d="M-176.8,0H-64v17.9h-112.8V0Z"/>
    <path class="st21" d="M-175.9.9h111.1v16.3h-111.1V.9Z"/>
    <path class="st73" d="M-64,0h-112.7"/>
    <path class="st21" d="M-163.8,19.3h-5.3v8h4.1c1.2,0,2.7,0,3.8-1.5.5-.7.8-1.6.8-2.6,0-2.2-1.3-3.7-3.4-3.9M-163,25c-.5.7-1.2.7-1.9.7h-2v-4.7h2.1c.6,0,1.4,0,1.8.7.2.4.4.9.4,1.5s0,1.4-.4,1.8M-150.6,24.1h5.1v-1.7h-5.1v-1.4h5.3v-1.7h-7.5v8h7.7v-1.7h-5.5v-1.5ZM-138.2,21h2.9v6.3h2.2v-6.3h2.9v-1.7h-8v1.7ZM-115.1,23.6c.7-.6.8-1.5.8-1.8s0-1-.5-1.6c-.7-.8-1.6-.9-2.4-.9h-5.5v8h2.3v-3.1h1.9l2.1,3.1h2.7l-2.4-3.3c.2,0,.6-.2,1-.4M-120.5,21h2.8c.7,0,.9.2,1,.3,0,.2,0,.4,0,.5,0,.5-.3.8-1,.8h-2.9s0-1.6,0-1.6ZM-102,19h-.3c-2.9.1-4.6,1.7-4.6,4.3s1.9,4.3,4.9,4.3,4.9-1.6,4.9-4.3-.6-2.3-.9-2.6c-.8-1.1-2.3-1.7-4-1.7M-99.4,23.3c0,1.5-1,2.5-2.6,2.5s-1.9-.7-2.1-1c0-.2-.5-.6-.5-1.5,0-1.7,1.3-2.6,2.5-2.6h0c1.5.1,2.6,1.1,2.6,2.6M-89.1,19.3h2.3v8h-2.3v-8ZM-79.5,19.3v1.7h2.9v6.3h2.2v-6.3h2.9v-1.7h-8Z"/>
    <path class="st12" d="M-160.8,10.1v.2c-.2.3-.4.6-.8,1-.5.4-1.2.7-2,.7-2,0-2.9-1.5-2.9-3,0-2.3,1.6-3.1,3-3.1s1.1,0,1.7.4c.5.3.6.6.8.9v.2c0,0,4.1-.7,4.1-.7v-.3c-.5-1-1.3-3.5-6.6-3.5s-7.4,4.6-7.4,6c0,2.7,1.5,4.7,4.1,5.5.9.3,1.9.4,3.1.4,3,0,5.1-.9,6.2-2.6.4-.6.5-1,.6-1.4v-.3c0,0-3.9-.4-3.9-.4ZM-151.2,11.3V3.3h-4.2v11.1h9.7v-3.1h-5.5ZM-144,3.3h4.3v11.1h-4.3V3.3ZM-127.4,10.1v.2c-.2.3-.4.6-.8,1-.5.4-1.2.7-2,.7-2,0-2.9-1.5-2.9-3,0-2.3,1.6-3.1,3-3.1s1.1,0,1.7.4c.5.3.6.6.8,1v.2c0,0,4.1-.7,4.1-.7v-.3c-.5-1-1.3-3.5-6.6-3.5s-7.4,4.6-7.4,6c0,2.7,1.5,4.7,4.1,5.5.9.3,1.9.4,3.1.4,3,0,5.1-.9,6.2-2.6.4-.6.5-1,.6-1.4v-.3c0,0-3.9-.5-3.9-.5ZM-113.4,7.6l4.4-4.3h-5.3l-3.2,3.6v-3.6h-4v11.1h4v-2.9l1-1,2.7,3.9h5.2l-4.8-6.8ZM-87.6,3.5c-1-.4-2.3-.6-3.9-.6h-.2c-2.9,0-4.9.9-6.1,2.6-.7.9-1,2.1-1,3.5s.3,2.4,1.1,3.3c1.2,1.7,3.2,2.5,6.2,2.5s3.6-.2,5.2-1.5c.5-.4,1-.9,1.3-1.5.5-.9.8-1.9.8-3,0-1.9-.9-4.2-3.4-5.3M-88.6,8.8c0,1-.4,2.3-1.5,2.8-.4.2-.8.3-1.4.3-2.2,0-3-1.6-3-3.1s.8-3.1,2.9-3.1h.1c2.8,0,2.9,2.6,2.9,3.1M-74.1,3.3v5.3c-.4-.6-.7-.9-1.4-1.7l-3.3-3.6h-3.5v11.1h4.2v-5.4c.2.3.4.5.8.9l4,4.5h3.5V3.3h-4.3Z"/>
    <path class="st27" d="M-107.6,1.6v14.5l7.3-6.9-7.3-7.6Z"/>
  </g>
  <g class="st75">
    <g>
      <path class="st73" d="M-94.1,0h30v30h-30V0Z"/>
      <path class="st21" d="M-91.2,18.6l14.3-16h5.8v14.9h4v5h-4v5h-5.3v-5h-14.8v-3.9ZM-83.6,17.5h7.2v-8.1l-7.2,8.1Z"/>
    </g>
    <g>
      <path class="st12" d="M-176.6,5.3h82.7v19.3h-82.7V5.3Z"/>
      <path class="st21" d="M-170.9,8.7h3.1v10.2h7v2.3h-10.1v-12.5ZM-146,10.7c.5.6,1.3,2,1.3,4.1,0,4-2.6,6.8-7.6,6.8s-7.7-2.7-7.7-6.6,3.1-6.5,7.2-6.7c2.5-.1,5.3.5,6.8,2.4M-156.7,15c0,1.5.6,2.3.8,2.6.3.4,1.2,1.7,3.7,1.7s4.5-2,4.5-4.4-2.1-4.5-4.6-4.4c-2.2.1-4.4,1.5-4.4,4.5M-127.6,17c-.2.8-.5,1.7-1.6,2.7-1,.9-2.7,2-5.9,2s-7.5-2.3-7.5-6.7,3.8-6.6,7.7-6.6,5.5.3,7.2,3.9l-3.4.4c-.3-.5-1.3-2-3.7-2s-4.4,2-4.4,4.4,2.1,4.4,4.5,4.4,3.5-1.6,4-2.4c0,0,3.1-.1,3.1-.1ZM-120.9,8.7h3.4l6,12.5h-3.5l-1.1-2.4h-6.4l-1.1,2.4h-3.4s6.1-12.5,6.1-12.5ZM-119,12.5c0-.2-.2-.3-.2-.5,0-.2,0-.3,0-.5,0,.2,0,.3,0,.4,0,.2,0,.3-.2.5l-1.9,4.2h4.4s-1.9-4.1-1.9-4.1ZM-109.7,8.7h3.2v10.2h6.9v2.3h-10.1v-12.5Z"/>
    </g>
  </g>
  <g class="st75">
    <g id="Expect_More_x5F_white_gradient">
      <path class="st21" d="M-133.9,28.3h-2.7v-5.1h2.7v.6h-2v1.5h2v.6h-2v1.8h2v.6ZM-130.2,28.3h-.7l-.9-1.3-.9,1.3h-.7l1.3-1.6-1.2-1.5h.7l.8,1.1.8-1.1h.7l-1.2,1.5,1.3,1.6h0ZM-126.5,26.7c0,.5,0,.9-.4,1.2-.3.3-.6.5-1.1.5s-.5-.1-.6-.2c-.2-.1-.3-.3-.4-.4v2.2h-.6v-4.9h.6v.4c0-.2.3-.3.4-.4.2-.1.4-.1.6-.1.4,0,.8.2,1.1.5.3.3.4.7.4,1.2ZM-127.1,26.7c0-.3,0-.6-.3-.8-.2-.2-.4-.3-.7-.3s-.5.1-.7.3c-.2.2-.3.5-.3.8s0,.6.3.8c.2.2.4.3.7.3s.5-.1.7-.3c.3-.2.3-.5.3-.8ZM-123,26.8h-2.4c0,.3,0,.6.3.7.2.2.4.3.7.3s.4,0,.5-.1.3-.2.3-.4l.5.3c0,.3-.3.5-.6.6-.2.1-.5.2-.8.2-.5,0-.8-.2-1.1-.5-.3-.3-.4-.7-.4-1.2s0-.9.4-1.2c.3-.3.7-.5,1.1-.5s.8.1,1.1.4c.3.3.4.7.4,1.1v.3ZM-123.6,26.4c0-.3,0-.5-.3-.6-.2-.1-.4-.2-.6-.2s-.5.1-.6.2c-.2.1-.3.3-.3.6h1.8ZM-119.9,28.1c0,.1-.3.1-.4.2,0,0-.3.1-.5.1-.5,0-.9-.2-1.2-.5-.3-.3-.5-.7-.5-1.2s.2-.9.5-1.2c.3-.3.7-.5,1.3-.5s.3,0,.4.1c0,0,.3.1.4.2v.6c0-.1-.3-.2-.4-.2s-.3-.1-.4-.1c-.4,0-.6.1-.8.3-.2.2-.3.5-.3.8s0,.6.3.8c.2.2.5.3.8.3s.3,0,.5-.1c0-.1.3-.1.4-.2v.6h-.1ZM-118,25.6h-.5v2.6h-.6v-2.6h-.3v-.5h.3v-1.3h.6v1.3h.5v.5ZM-111.1,28.3h-.6v-1.9c0-.3,0-.5,0-.6s-.2-.2-.4-.2-.4.1-.5.3c0,.2-.2.5-.2.9v1.6h-.6v-1.9c0-.3,0-.5,0-.7,0-.1-.2-.2-.4-.2s-.4.1-.5.3c0,.2-.2.5-.2.9v1.5h-.6v-3.1h.6v.4c0-.2.2-.3.3-.4,0-.1.3-.1.6-.1s.4,0,.5.1.3.2.3.4c0-.2.2-.3.4-.4.2-.1.4-.1.6-.1.3,0,.6.1.7.3.2.2.3.5.3.9v2h-.1ZM-107,26.7c0,.5-.2.9-.5,1.2-.3.3-.7.5-1.2.5s-.9-.2-1.2-.5c-.3-.3-.5-.7-.5-1.2s.2-.9.5-1.2c.3-.3.7-.5,1.2-.5s.9.2,1.2.5c.3.3.5.7.5,1.2ZM-107.7,26.7c0-.3,0-.6-.3-.8-.2-.2-.5-.3-.8-.3s-.6.1-.8.3c-.2.2-.3.5-.3.8s0,.6.3.8c.2.2.5.3.8.3s.6-.1.8-.3c.2-.2.3-.5.3-.8ZM-104.5,25.1v.6c0,0-.2,0-.2-.1h-.2c-.3,0-.5.1-.6.3,0,.2-.2.5-.2,1v1.4h-.6v-3.1h.6v.6c0-.2.2-.4.3-.5.2-.1.4-.2.6-.2h.2q0-.1,0,0ZM-101.1,26.8h-2.4c0,.3,0,.6.3.7.2.2.4.3.7.3s.4,0,.5-.1.3-.2.3-.4l.5.3c0,.3-.3.5-.6.6-.2.1-.5.2-.8.2-.5,0-.8-.2-1.1-.5-.3-.3-.4-.7-.4-1.2s0-.9.4-1.2c.3-.3.7-.5,1.1-.5s.8.1,1.1.4c.3.3.4.7.4,1.1v.3ZM-101.7,26.4c0-.3,0-.5-.3-.6-.2-.1-.4-.2-.6-.2s-.5.1-.6.2c-.2.1-.3.3-.3.6h1.8ZM-99.5,27.9c0,.1,0,.2,0,.3,0,.1-.2.1-.3.1s-.2,0-.3-.1c0-.1,0-.2,0-.3s0-.2,0-.3c0-.1.2-.1.3-.1s.2,0,.3.1c0,.1,0,.2,0,.3Z"/>
    </g>
    <g>
      <path class="st71" d="M-138.8,20.2l7.3-20.2.2.3-7.2,19.7-.3.2Z"/>
      <path class="st71" d="M-131.5,0h34.3l-.3.3h-33.8l-.2-.3Z"/>
      <path class="st71" d="M-97.2,0l-7.3,20.2-.2-.2L-97.5.3l.3-.3Z"/>
      <path class="st71" d="M-104.5,20.2h-34.3l.3-.2h33.8l.2.2Z"/>
      <path class="st9" d="M-138.5,20h33.8L-97.5.3h-33.8l-7.2,19.7Z"/>
      <path class="st22" d="M-120.6,6.4h-6.5v.3h6l.5-.3Z"/>
      <path class="st10" d="M-127,6.7l-5.2,12.5-.4.3,5.5-13.1v.3Z"/>
      <path class="st29" d="M-126.1,19.5l5.5-13.1-.5.3-5.3,12.5.3.3Z"/>
      <path class="st7" d="M-132.2,19.2h5.8l.3.3h-6.5l.4-.3Z"/>
      <path class="st77" d="M-109.5,9.9c0-.5-.8-.5-.8-.5h-10.8l-.5.3h11s.5,0,.6.2h.5Z"/>
      <path class="st8" d="M-108.6,6.4c6.6,0,5.5,2.8,5.5,2.8,0,0,0,.1-1.2,2.9-1.1,2.7-6.9,2.8-6.9,2.8h-4.9c-.8,0-1.2.2-1.3.5,0,.3-.3.7-.3.7l-.5.4.5-1.3s.2-.6,1.8-.6h4.8s5.5-.1,6.5-2.4c1-2.4,1.2-2.9,1.2-2.9,0,0,1.4-2.5-5.2-2.5,0,0,0-.4,0-.4Z"/>
      <path class="st17" d="M-117.8,16.1h11.7l-.4.4h-11.8l.5-.4Z"/>
      <path class="st77" d="M-125.7,19.5h18.3l-.2-.3h-17.6l-.5.3Z"/>
      <path class="st5" d="M-127,6.7h5.8l-5.2,12.5h-5.8s5.2-12.5,5.2-12.5ZM-125.2,19.2h17.7l1.1-2.7h-11.8l.5-1.3s.2-.6,1.8-.6h4.8s5.5-.1,6.5-2.4c1-2.4,1.2-2.9,1.2-2.9,0,0,1.4-2.5-5.3-2.5h-11.3l-1.1,2.7h10.8s1.1,0,.8.8c-.3.8-.4,1-.4,1,0,0-.2.7-1.9.7h-4.8s-5.4-.1-6.6,2.7c-1.3,2.7-2,4.5-2,4.5Z"/>
      <path class="st6" d="M-125.2,19.2s.8-1.8,1.9-4.6h0c0-.1-.3-.3-.3-.3-1,2.2-2.1,5.1-2.1,5.1,0,0,.5-.2.5-.2Z"/>
      <path class="st11" d="M-123.3,14.5c1.2-2.8,6.6-2.7,6.6-2.7v-.3c-1.8,0-5.8.5-6.8,2.7,0,0,0,.1,0,.1l.3.2Z"/>
      <path class="st4" d="M-116.7,11.5h4.9c1.2,0,1.4-.5,1.4-.5h.4c0,.1-.2.8-1.9.8h-4.8v-.3Z"/>
      <path class="st70" d="M-110,11.2s0-.2.4-1c0-.1,0-.2,0-.3h-.4v.2c-.2.4-.4.9-.4.9,0,0,.3.2.3.2ZM-121.6,9.8l1.4-3.4.2.3-1.1,2.7-.5.4Z"/>
      <path class="st37" d="M-120.2,6.4h11.6v.3c0,0-11.4,0-11.4,0l-.2-.3Z"/>
      <path class="st72" d="M-107.6,19.2l1.1-2.7.4-.4-1.3,3.4-.2-.3Z"/>
      <path class="st22" d="M-126.3.5h2.7l-.4.2h-2.2v-.2Z"/>
      <path class="st17" d="M-129.1.9l1.7,2.2h-.4c0,0-1.3-1.8-1.3-1.8v-.4Z"/>
      <path class="st77" d="M-127.8,3l-2.7,1.7-.2.4,3.3-2h-.4ZM-132.9,5.1l2.8-1.7.3-.4h-.2l-2.7,1.7-.2.4Z"/>
      <path class="st22" d="M-131.2.9l-1.7,4.2.2-.4,1.5-3.4v-.4ZM-129.8,3l.7-1.7v-.4l-.7,1.9v.2ZM-130.5,4.7l.7-1.7-.3.4-.6,1.7.2-.4Z"/>
      <path class="st17" d="M-131.2.9l1.4,1.9v.2h-.2l-1.2-1.7v-.4Z"/>
      <path class="st77" d="M-121.4.7l-3.2,2-.2.2.4-.5,3-1.8s0,.1,0,0Z"/>
      <path class="st74" d="M-120.1,4.3l-.4,1h0c0,0,0-.2,0-.2l.4-.9h0Z"/>
      <path class="st17" d="M-116.3,4.2h-3.9,0c0,0,3.8,0,3.8,0h0ZM-115.7,4.1c0,.3-.6.3-.6.3v-.2c.4,0,.4-.2.4-.2,0,0,.2,0,.2,0Z"/>
      <path class="st74" d="M-115.6,3.7c0,0,0,0,0,0q0,0,0,.4h-.2c0,0,0-.3,0-.3h.2Z"/>
      <path class="st40" d="M-115.6,3.7c0,0,0,0-.4,0h-1.9s-1.9,0-1.5-.9h-.2c-.3.5.6,1.1,1.5,1.1h2.3s.2,0,.2-.1Z"/>
      <path class="st38" d="M-111.8.6h-4.8s-2.1-.1-2.5.9c0,0-.2.5-.5,1.1h.2c.3-.7.4-.9.4-.9,0,0,.4-.9,2.3-.9h4.5s.4-.2.4-.2Z"/>
      <path class="st36" d="M-109.8,1.4s.6-.7,2.1-.7,1.5.7,1.5.7l.2.6h0c0-.1-.2-.7-.2-.7,0,0-.2-.7-1.7-.7s-2.1.7-2.1.7h0Z"/>
      <path class="st74" d="M-106,1.9l.6-1.3.2.2-.4.9s-.4.2-.4.2Z"/>
      <path class="st77" d="M-111.8,5.5h-2.8l.5-.2h2.2v.2Z"/>
      <path class="st17" d="M-109.8,1.4l-4.3,3.9-.5.2.5-.4.6-.5,3.6-3.3h.1Z"/>
      <path class="st77" d="M-120.8,5.6h-2.5v-.3h2.7c0,0-.2.3-.2.3Z"/>
      <path class="st17" d="M-123.3,5.6l-1.6-2v-.5c0,0,0,.3,0,.3l1.6,2s0,.2,0,.2Z"/>
      <path class="st74" d="M-120.6,5.1l-1.6-2h-.3c0,0,1.8,2.2,1.8,2.2h0c0,0,0-.2,0-.2Z"/>
      <path class="st30" d="M-122.2,3.1l3.9-2.5h-.6c0,.1-3.6,2.4-3.6,2.4h.3ZM-118.3.6h-3.1c0,.1,2.5.1,2.5.1h.6Z"/>
      <path class="st77" d="M-114.1,5.1c-.8.4-1.9.4-1.9.4h-4.8l.2-.2h0c0,0,4.3,0,4.3,0,2.3,0,2.6-1,2.6-1,0,0,0,0,.4-.9h.2c0,0-.5,1.2-.5,1.2,0,0-.6.6-.6.6Z"/>
      <path class="st42" d="M-113.1,3.5s.5-1.1-1.8-1.1h-2c0,0-.2,0-.2,0,0,0,.2,0,.5,0h1.9s1.8,0,1.4.9c0,0,.2,0,.2,0Z"/>
      <path class="st17" d="M-112.6,1.7h-3.8s-.5,0-.6.3v.3c0,0,0,0,0,0h.2c0,0,0-.3,0-.3,0,0,0-.1.4-.1h3.9s0-.3,0-.3Z"/>
      <path class="st22" d="M-111.8.6l-.6,1.4-.2-.3.5-1h.3ZM-106,1.9l.9,3.1v.4h0c0,0-.9-3.4-.9-3.4h0Z"/>
      <path class="st74" d="M-107.7,4.4l.3.9-.3.3-.2-1,.2-.2Z"/>
      <path class="st30" d="M-107.7,4.4h-3.1v.2h2.9l.2-.2Z"/>
      <path class="st77" d="M-111.9,5.3l1.1-.9v.2c0,0-1,.9-1,.9v-.2Z"/>
      <path class="st23" d="M-108,3.4h-1.7.3c0,0,1.1,0,1.1,0h.3Z"/>
      <path class="st22" d="M-108.4,1.9l-1.3,1.5h.3c0,0,.9-1,.9-1v-.5Z"/>
      <path class="st74" d="M-108,3.4l-.4-1.5v.5c0,0,0,.9,0,.9h.3Z"/>
      <path class="st77" d="M-105,5.3h2.1v.3c0,0-4.8,0-4.8,0l.3-.3h2.3c0,0,0,0,0,0Z"/>
      <path class="st30" d="M-105.6,1.7h2.1l-.4.3h-2.1c0-.1.4-.3.4-.3Z"/>
      <path class="st39" d="M-105.2.8h6.4l.3-.2h-6.9l.2.2Z"/>
      <path class="st74" d="M-99.1,2l.6-1.4-.3.2-.4.9v.3Z"/>
      <path class="st30" d="M-99.1,2h-2.2v-.3h2.1v.3ZM-102.9,5.3l1.6-3.6v.3l-1.5,3.6v-.3Z"/>
      <path class="st43" d="M-126.2.7h2.2l-1.9,4.6h-2.2l1.9-4.6ZM-130.5,4.7l2.7-1.7-1.3-1.7-1.4,3.4ZM-132.7,4.7l2.7-1.7-1.3-1.7-1.4,3.4ZM-124.6,2.7s-.3.2-.3.3c0,0,0,.4,0,.4l1.6,2h2.5l-1.8-2.4,3.7-2.3h-2.5s-3.3,2-3.3,2ZM-120.5,5.3h4.3c2.3,0,2.6-1,2.6-1,0,0,0,0,.4-.9s-1.4-.9-1.4-.9h-1.9c-.7,0-.5-.3-.5-.3v-.3c.2-.3.7-.3.7-.3h3.8l.4-1h-4.5c-1.9,0-2.3.9-2.3.9,0,0,0,.2-.4,1-.3.8,1.5.9,1.5.9h1.9c.5,0,.4.2.4.2,0,0,0,0,0,.3,0,.3-.6.3-.6.3h-3.8l-.5,1.1ZM-114.1,5.3h2.3l1.1-1h3l.3,1h2.2l-1-3.9s0-.7-1.5-.7-2.1.7-2.1.7l-4.3,3.9ZM-108.4,1.9l.4,1.5h-1.7s1.3-1.5,1.3-1.5ZM-105,5.3h2.1l1.5-3.6h2.2l.4-1h-6.4l-.4,1h2.1s-1.5,3.6-1.5,3.6Z"/>
      <path class="st41" d="M-126.2.7l-1.9,4.6-.3.3,2.1-5.1v.2Z"/>
      <path class="st17" d="M-124.9,3l1-2.3.3-.2-.8,1.8-.4.5q0,0,0,.2ZM-124.9,3l-1,2.4.2.2.8-2v-.5h0Z"/>
      <path class="st77" d="M-125.7,5.6h-2.7l.3-.3h2.2l.2.3Z"/>
      <path class="st23" d="M-105.1,5l1.2-3,.4-.3-1.5,3.6h0c0,0,0-.3,0-.3Z"/>
    </g>
  </g>
  <g class="st75">
    <path class="st35" d="M-76.4,28.8c0,.7-.5,1.2-1.2,1.2h-86.3c-.7,0-1.2-.5-1.2-1.2V2c0-.7.5-1.2,1.2-1.2h86.3c.7,0,1.2.5,1.2,1.2v26.8Z"/>
    <path class="st21" d="M-160.6,26.7h1.2c0,.1,0,.2,0,.2l-.3.3c0,.1-.2.1-.4.2-.2,0-.3.1-.5.1-.3,0-.5,0-.7-.1s-.3-.2-.5-.4c0-.1-.2-.3-.3-.5s0-.4,0-.6,0-.4,0-.6,0-.3.3-.5c0-.1.3-.3.5-.4s.4-.1.7-.1h.4c0,0,.2.1.3.1,0,.1.2.1.3.2s0,.2.2.3h0c0,.1,2,.1,2,.1v-.2c0-.4-.2-.7-.4-1s-.5-.5-.8-.6c-.3-.2-.6-.3-1-.3-.4.1-.8.1-1.1.1-.5,0-1,.1-1.4.2s-.7.3-1,.6c-.3.3-.5.6-.6.9,0,.4-.2.8-.2,1.2s0,.9.2,1.3c.2.4.4.7.7.9.3.2.6.4,1,.5s.8.2,1.3.2.9-.1,1.3-.2c.3-.1.5-.2.8-.4v.4h1.2v-3.3h-3v1.4h0ZM-160.4,25.6h2.6v2.9h-.7l-.2-.6c-.2.3-.6.5-.9.6-.4.1-.8.2-1.2.2s-.9-.1-1.3-.2-.7-.3-1-.5-.5-.5-.6-.8-.2-.8-.2-1.2,0-.8.2-1.1c0-.3.3-.6.6-.9.3-.2.6-.4,1-.6.4-.1.8-.2,1.3-.2s.7,0,1,.1l.9.3c.3.1.5.3.7.6.2.2.3.5.4.9h-1.6c0-.2,0-.3-.2-.4l-.3-.3c0-.1-.2-.1-.4-.1h-.4c-.3,0-.6.1-.8.2s-.4.2-.5.4l-.3.6c0,.2,0,.4,0,.6s0,.4,0,.6l.3.6c0,.2.3.3.5.4s.5.2.8.2.4,0,.5-.1c.2,0,.3-.1.4-.2,0-.1.2-.2.3-.4,0-.1.2-.3.2-.5h-1.2v-1.1h0ZM-155.1,27.3v-.8h3.2v-1.3h-3.2v-.7h3.4v-1.4h-5.2v5.6h5.3v-1.4s-3.5,0-3.5,0ZM-151.8,28.5h-4.9v-5.2h4.8v1h-3.4v1.1h3.2v.9h-3.2v1.2h3.4v1h0ZM-151.2,23.2v1.4h1.9v4.2h1.8v-4.2h1.9v-1.4s-5.6,0-5.6,0ZM-145.7,24.3h-1.9v4.2h-1.4v-4.2h-1.9v-1h5.2v1ZM-145.1,23.2v1.4h1.9v4.2h1.8v-4.2h1.9v-1.4s-5.6,0-5.6,0ZM-139.6,24.3h-1.9v4.2h-1.4v-4.2h-1.9v-1h5.2s0,1,0,1ZM-138.9,23.2v5.6h1.8v-5.6h-1.8ZM-137.3,28.5h-1.4v-5.2h1.4v5.2ZM-132,23.2v3.2l-2.4-3.2h-1.9v5.6h1.8v-3.2l2.5,3.2h1.8v-5.6h-1.8ZM-130.4,28.5h-1.5l-2.8-3.6v3.6h-1.4v-5.2h1.6l2.7,3.6v-3.6h1.4v5.2ZM-126.2,26.7h1.2c0,.1,0,.2,0,.2l-.3.3c0,.1-.2.1-.4.2-.2,0-.3.1-.5.1-.3,0-.5,0-.7-.1s-.3-.2-.5-.4c0-.1-.2-.3-.3-.5,0-.2,0-.4,0-.6s0-.4,0-.6,0-.3.3-.5c0-.1.3-.3.5-.4s.4-.1.7-.1h.4c0,0,.2.1.3.1,0,.1.2.1.3.2,0,.1,0,.2.2.3h0c0,.1,2,.1,2,.1v-.2c0-.4-.2-.7-.4-1-.2-.3-.5-.5-.8-.6-.3-.2-.6-.3-1-.3-.4.1-.7.1-1.1.1s-1,.1-1.4.2-.7.3-1,.6c-.3.3-.5.6-.6.9,0,.4-.2.8-.2,1.2s0,.9.2,1.3c.2.4.4.7.7.9.3.2.6.4,1,.5s.8.2,1.3.2.9-.1,1.3-.2c.3-.1.5-.2.8-.4v.4h1.2v-3.3h-3v1.4h0ZM-126,25.6h2.6v2.9h-.7l-.2-.6c-.2.3-.6.5-.9.6-.4.1-.8.2-1.2.2s-.9-.1-1.3-.2-.7-.3-1-.5-.5-.5-.6-.8-.2-.8-.2-1.2,0-.8.2-1.1c0-.3.3-.6.6-.9.3-.2.6-.4,1-.6.4-.1.8-.2,1.3-.2s.7,0,1,.1l.9.3c.3.1.5.3.7.6.2.2.3.5.4.9h-1.6c0-.2,0-.3-.2-.4l-.3-.3c0-.1-.2-.1-.4-.1h-.4c-.3,0-.6.1-.8.2-.2.1-.4.2-.5.4l-.3.6c0,.2,0,.4,0,.6s0,.4,0,.6l.3.6c0,.2.3.3.5.4s.5.2.8.2.4,0,.5-.1c.2,0,.3-.1.4-.2s.2-.2.3-.4c0-.1.2-.3.2-.5h-1.2v-1.1h0ZM-114,28.4s0-.1,0-.2,0-.2,0-.3v-.9c0-.2,0-.3,0-.5,0-.2,0-.3-.3-.4h0c0-.2.3-.3.4-.5.2-.2.2-.5.2-.9s0-.3,0-.5c0-.2,0-.4-.3-.5,0-.2-.3-.3-.6-.4-.2-.1-.6-.2-.9-.2h-4v5.6h1.8v-1.9h1.7q0,0,.2.1s0,.1,0,.2v1.3c0,.1,0,.2,0,.2h0c0,.1,2.1.1,2.1.1,0,0,0-.3,0-.3ZM-115.7,28.5c0-.1,0-.1,0-.2v-.9c0-.2,0-.3,0-.4,0-.1,0-.2-.2-.3q0-.1-.2-.1h-2v1.9h-1.4v-5.2h3.7c.4,0,.6,0,.9.1.2.1.4.2.5.4,0,.1.2.3.2.5s0,.3,0,.4c0,.3,0,.6-.2.8,0,.2-.3.4-.6.5.2,0,.3.1.4.2s.2.2.2.4c0,.1,0,.3,0,.4v.9c0,.1,0,.2,0,.3,0,.1,0,.2,0,.2h-1.5ZM-116,24.5c0,0-.2-.1-.2-.1h-2.1v1.3h2.1c0,0,.2-.1.2-.1l.2-.2c0-.1,0-.2,0-.3s0-.2,0-.3c0-.2,0-.3-.2-.3ZM-116,25.2c0,.1,0,.1,0,.1,0,0,0,.1-.2.1h-1.9v-.9h1.8q0,0,.2.1h0v.3q0,.2,0,.3ZM-111.5,27.3v-.8h3.2v-1.3h-3.2v-.7h3.4v-1.4h-5.2v5.6h5.3v-1.4s-3.5,0-3.5,0ZM-108.3,28.5h-4.8v-5.2h4.8v1h-3.4v1.1h3.2v.9h-3.2v1.2h3.4s0,1,0,1Z"/>
    <path class="st21" d="M-102,26.2c0-.2-.2-.4-.4-.5l-.6-.3c-.2-.1-.4-.1-.7-.2l-1.8-.3c-.2,0-.3-.1-.3-.1,0,0,0-.1,0-.2s0-.2.2-.3c0-.1.3-.1.6-.1h.4c0,0,.2,0,.3.1,0,0,.2.1.2.2,0,.1,0,.2,0,.3v.2h1.9v-.2c0-.4-.2-.7-.4-1-.2-.2-.5-.4-.8-.5s-.6-.2-.9-.2c-.8-.1-1.5-.1-2,0l-.9.3c-.2.1-.4.3-.6.6,0,.2-.2.5-.2.8s0,.6.2.8c0,.2.3.4.5.5l.6.3c.2.1.4.1.7.1l1.3.2c.3,0,.5.1.6.2,0,0,0,.1,0,.2s0,.2-.2.3c-.2.1-.4.1-.7.1h-.4c0,0-.3-.1-.4-.1s-.2-.1-.2-.2c0-.1,0-.2,0-.3v-.2h-2v.2c0,.3,0,.6,0,.8,0,.2.2.4.4.6.2.1.4.3.6.4s.4.1.6.2c.2,0,.5.1.7.1h.7c.5,0,1,0,1.3-.1.4-.1.7-.2.9-.4.2-.2.4-.4.5-.6s0-.5,0-.8c.3-.4.2-.7,0-.9h0ZM-102.1,27.6c0,.2-.2.4-.4.5-.2.2-.5.3-.8.4s-.8.1-1.3.1h-.7c-.2,0-.4,0-.7-.1-.2,0-.4-.1-.6-.2s-.4-.2-.5-.3c0-.1-.3-.3-.4-.5s0-.4,0-.7h1.6c0,.2,0,.3,0,.4l.3.3c0,.1.3.1.4.1h.5c.3,0,.6-.1.8-.2.2-.1.3-.3.3-.5s0-.3-.2-.4c-.2-.1-.4-.1-.6-.2l-1.3-.2c-.2,0-.4-.1-.7-.1-.2-.1-.4-.1-.6-.2s-.3-.2-.4-.4c0-.2,0-.4,0-.7s0-.5.2-.7.3-.4.5-.5.5-.2.8-.3c.3-.1.7-.1,1.1-.1s.6,0,.9.1c.3,0,.6.1.9.2s.5.3.7.5.3.5.3.9h-1.6c0-.2,0-.3-.2-.4s-.2-.2-.3-.2c0-.1-.3-.1-.4-.1h-.4c-.3,0-.5.1-.7.2s-.3.3-.3.4,0,.2.2.3c0,.1.3.1.4.2l1.8.3c.2,0,.5.1.7.2s.4.2.5.3c0,.1.3.2.4.4,0,.2,0,.4,0,.6,0,.2-.2.4-.2.6ZM-97.3,23.2v3.6c0,.1,0,.2,0,.4l-.3.3c0,.1-.4.1-.7.1s-.5,0-.7-.1l-.3-.3c0-.1,0-.2,0-.4v-3.6h-1.8v3.9c0,.2,0,.3,0,.5,0,.2.2.3.3.5,0,.2.3.3.5.4s.5.2.8.3c.3.1.7.1,1.2.1s.8,0,1.2-.1c.3-.1.6-.2.8-.3.2-.1.4-.3.5-.4,0-.2.2-.3.3-.5,0-.2,0-.3,0-.5v-3.9h-1.8ZM-95.7,26.7v.3c0,.1,0,.3,0,.4s0,.3-.2.4-.3.3-.5.4-.5.2-.8.3c-.3.1-.7.1-1.1.1s-.8,0-1.1-.1c-.3-.1-.6-.2-.8-.3-.2-.1-.4-.2-.5-.4,0-.1-.2-.3-.2-.4,0-.1,0-.3,0-.4v-3.6h1.4v3.4c0,.2,0,.3,0,.4,0,.1.2.3.4.3.2.1.4.1.7.1s.6,0,.7-.1c.2-.1.3-.2.4-.3,0-.1,0-.3,0-.4v-3.4h1.4v3.3h.2ZM-93.2,27.3v-4.1h-1.8v5.6h5v-1.4h-3.2ZM-90.3,28.5h-4.5v-5.2h1.4v4.1h3.1v1.1ZM-90.7,23.2v1.4h1.9v4.2h1.8v-4.2h1.9v-1.4s-5.6,0-5.6,0ZM-85.3,24.3h-1.9v4.2h-1.4v-4.2h-1.9v-1h5.2v1h0ZM-78.9,26.2c-.1-.2-.2-.4-.4-.5l-.6-.3c-.2-.1-.4-.1-.7-.2l-1.8-.3c-.2,0-.3-.1-.3-.1-.1,0-.1-.1-.1-.2s0-.2.2-.3c.1-.1.3-.1.6-.1h.4c.1,0,.2,0,.3.1.1,0,.2.1.2.2.1.1.1.2.1.3v.2h1.9v-.2c0-.4-.2-.7-.4-1-.2-.2-.5-.4-.8-.5s-.6-.2-.9-.2c-.8-.1-1.5-.1-2,0l-.9.3c-.2.1-.4.3-.6.6-.1.2-.2.5-.2.8s.1.6.2.8c.1.2.3.4.5.5l.6.3c.2.1.4.1.7.1l1.3.2c.3,0,.5.1.6.2.1,0,.1.1.1.2s-.1.2-.2.3c-.2.1-.4.1-.7.1h-.4c-.1,0-.3-.1-.4-.1s-.2-.1-.2-.2c-.1-.1-.1-.2-.1-.3v-.2h-2v.2c0,.3,0,.6.1.8.1.2.2.4.4.6.2.1.4.3.6.4.2.1.4.1.6.2.2,0,.5.1.7.1h.7c.5,0,1,0,1.3-.1.4-.1.7-.2.9-.4.2-.2.4-.4.5-.6s.1-.5.1-.8c.3-.4.2-.7.1-.9h0ZM-79.1,27.6c-.1.2-.2.4-.4.5-.2.2-.5.3-.8.4s-.8.1-1.3.1h-.7c-.2,0-.4,0-.7-.1-.2,0-.4-.1-.6-.2-.2-.1-.4-.2-.5-.3-.1-.1-.3-.3-.4-.5-.1-.2-.1-.4-.1-.7h1.6c0,.2,0,.3.1.4l.3.3c.1.1.3.1.4.1h.5c.3,0,.6-.1.8-.2s.3-.3.3-.5-.1-.3-.2-.4c-.2-.1-.4-.1-.6-.2l-1.3-.2c-.2,0-.4-.1-.7-.1-.2-.1-.4-.1-.6-.2-.2-.1-.3-.2-.4-.4-.1-.2-.1-.4-.1-.7s.1-.5.2-.7c.1-.2.3-.4.5-.5s.5-.2.8-.3c.3-.1.7-.1,1.1-.1s.6,0,.9.1c.3,0,.6.1.9.2.3.1.5.3.7.5s.3.5.3.9h-1.6c0-.2-.1-.3-.2-.4-.1-.1-.2-.2-.3-.2-.1-.1-.3-.1-.4-.1h-.4c-.3,0-.5.1-.7.2s-.3.3-.3.4.1.2.2.3c.1.1.3.1.4.2l1.8.3c.2,0,.5.1.7.2s.4.2.5.3c.1.1.3.2.4.4.1.2.1.4.1.6s-.1.4-.2.6ZM-78.3,27.4v1.3h1.4v-1.3h-1.4ZM-77,28.5h-1v-.9h1v.9Z"/>
    <path class="st34" d="M-160.4,25.6h2.6v2.9h-.7l-.2-.6c-.2.3-.6.5-.9.6-.4.1-.8.2-1.2.2s-.9-.1-1.3-.2-.7-.3-1-.5-.5-.5-.6-.8-.2-.8-.2-1.2,0-.8.2-1.1c0-.3.3-.6.6-.9.3-.2.6-.4,1-.6.4-.1.8-.2,1.3-.2s.7,0,1,.1l.9.3c.3.1.5.3.7.6.2.2.3.5.4.9h-1.6c0-.2,0-.3-.2-.4l-.3-.3c0-.1-.2-.1-.4-.1h-.4c-.3,0-.6.1-.8.2s-.4.2-.5.4l-.3.6c0,.2,0,.4,0,.6s0,.4,0,.6l.3.6c0,.2.3.3.5.4s.5.2.8.2.4,0,.5-.1c.2,0,.3-.1.4-.2,0-.1.2-.2.3-.4,0-.1.2-.3.2-.5h-1.2v-1.1h0Z"/>
    <path class="st64" d="M-156.7,23.4h4.8v1h-3.4v1.1h3.2v.9h-3.2v1.2h3.4v1h-4.8v-5.2Z"/>
    <path class="st68" d="M-149,24.3h-1.9v-1h5.2v1h-1.9v4.2h-1.4v-4.2Z"/>
    <path class="st67" d="M-142.9,24.3h-1.9v-1h5.2v1h-1.9v4.2h-1.4s0-4.2,0-4.2Z"/>
    <path class="st63" d="M-138.7,23.4h1.4v5.2h-1.4s0-5.2,0-5.2Z"/>
    <path class="st66" d="M-131.8,23.4h1.4v5.2h-1.5l-2.8-3.7v3.6h-1.4v-5.2h1.6l2.7,3.6s0-3.5,0-3.5Z"/>
    <path class="st62" d="M-126,25.6h2.6v2.9h-.7l-.2-.6c-.2.3-.6.5-.9.6-.4.1-.8.2-1.2.2s-.9-.1-1.3-.2-.7-.3-1-.5-.5-.5-.6-.8-.2-.8-.2-1.2,0-.8.2-1.1c0-.3.3-.6.6-.9.3-.2.6-.4,1-.6.4-.1.8-.2,1.3-.2s.7,0,1,.1l.9.3c.3.1.5.3.7.6.2.2.3.5.4.9h-1.6c0-.2,0-.3-.2-.4l-.3-.3c0-.1-.2-.1-.4-.1h-.4c-.3,0-.6.1-.8.2-.2.1-.4.2-.5.4l-.3.6c0,.2,0,.4,0,.6s0,.4,0,.6l.3.6c0,.2.3.3.5.4s.5.2.8.2.4,0,.5-.1c.2,0,.3-.1.4-.2s.2-.2.3-.4c0-.1.2-.3.2-.5h-1.2v-1.1h0Z"/>
    <path class="st61" d="M-114.3,28.3c0-.1,0-.2,0-.3v-.9c0-.2,0-.3,0-.4,0-.1,0-.3-.2-.4s-.2-.2-.4-.2c.3-.1.5-.3.6-.5s.2-.5.2-.8,0-.3,0-.4c0-.2,0-.3-.2-.5,0-.1-.3-.3-.5-.4s-.5-.1-.9-.1h-3.7v5.2h1.4v-1.9h2c0,0,.2.1.2.1,0,.1,0,.2.2.3,0,.1,0,.3,0,.4v.9q0,.1,0,.2h1.5c0-.2,0-.2,0-.3ZM-115.8,25.3c0,.1,0,.2-.2.2q0,.1-.2.1h-2.1v-1.3h2.1c0,0,.2.1.2.1,0,0,0,.1.2.2,0,.1,0,.2,0,.3,0,.2,0,.3,0,.4Z"/>
    <path class="st65" d="M-113.2,23.4h4.8v1h-3.4v1.1h3.2v.9h-3.2v1.2h3.4v1h-4.8v-5.2Z"/>
    <path class="st49" d="M-103.8,24.8c0-.2,0-.3-.2-.4s-.2-.2-.3-.2c0-.1-.3-.1-.4-.1h-.4c-.3,0-.5.1-.7.2s-.3.3-.3.4,0,.2.2.3c0,.1.3.1.4.2l1.8.3c.2,0,.5.1.7.2s.4.2.5.3c0,.1.3.2.4.4,0,.2,0,.4,0,.6s0,.5,0,.7-.2.4-.4.5c-.2.2-.5.3-.8.4s-.8.1-1.3.1h-.7c-.2,0-.4,0-.7-.1-.2,0-.4-.1-.6-.2s-.4-.2-.5-.3c0-.1-.3-.3-.4-.5s0-.4,0-.7h1.6c0,.2,0,.3,0,.4l.3.3c0,.1.3.1.4.1h.5c.3,0,.6-.1.8-.2.2-.1.3-.3.3-.5s0-.3-.2-.4c-.2-.1-.4-.1-.6-.2l-1.3-.2c-.2,0-.4-.1-.7-.1-.2-.1-.4-.1-.6-.2s-.3-.2-.4-.4c0-.2,0-.4,0-.7s0-.5.2-.7.3-.4.5-.5.5-.2.8-.3c.3-.1.7-.1,1.1-.1s.6,0,.9.1c.3,0,.6.1.9.2s.5.3.7.5.3.5.3.9h-1.7Z"/>
    <path class="st50" d="M-101.1,23.4h1.4v3.4c0,.2,0,.3,0,.4,0,.1.2.3.4.3.2.1.4.1.7.1s.6,0,.7-.1c.2-.1.3-.2.4-.3,0-.1,0-.3,0-.4v-3.4h1.4v3.6c0,.1,0,.3,0,.4s0,.3-.2.4-.3.3-.5.4-.5.2-.8.3c-.3.1-.7.1-1.1.1s-.8,0-1.1-.1c-.3-.1-.6-.2-.8-.3-.2-.1-.4-.2-.5-.4,0-.1-.2-.3-.2-.4,0-.1,0-.3,0-.4v-3.6h.2Z"/>
    <path class="st54" d="M-94.8,23.4h1.4v4.1h3.1v1h-4.5s0-5.1,0-5.1Z"/>
    <path class="st53" d="M-88.6,24.3h-1.9v-1h5.2v1h-1.9v4.2h-1.4v-4.2h0Z"/>
    <path class="st56" d="M-80.7,24.8c0-.2-.1-.3-.2-.4-.1-.1-.2-.2-.3-.2-.1-.1-.3-.1-.4-.1h-.4c-.3,0-.5.1-.7.2s-.3.3-.3.4.1.2.2.3c.1.1.3.1.4.2l1.8.3c.2,0,.5.1.7.2s.4.2.5.3c.1.1.3.2.4.4.1.2.1.4.1.6s0,.5-.1.7-.2.4-.4.5c-.2.2-.5.3-.8.4s-.8.1-1.3.1h-.7c-.2,0-.4,0-.7-.1-.2,0-.4-.1-.6-.2-.2-.1-.4-.2-.5-.3-.1-.1-.3-.3-.4-.5-.1-.2-.1-.4-.1-.7h1.6c0,.2,0,.3.1.4l.3.3c.1.1.3.1.4.1h.5c.3,0,.6-.1.8-.2s.3-.3.3-.5-.1-.3-.2-.4c-.2-.1-.4-.1-.6-.2l-1.3-.2c-.2,0-.4-.1-.7-.1-.2-.1-.4-.1-.6-.2-.2-.1-.3-.2-.4-.4-.1-.2-.1-.4-.1-.7s.1-.5.2-.7c.1-.2.3-.4.5-.5s.5-.2.8-.3c.3-.1.7-.1,1.1-.1s.6,0,.9.1c.3,0,.6.1.9.2.3.1.5.3.7.5s.3.5.3.9h-1.7Z"/>
    <path class="st55" d="M-78.1,27.6h1v.9h-1v-.9Z"/>
    <path class="st58" d="M-77.1,19.7c0,.5-.4.9-.9.9h-19.6c-.5,0-.9-.4-.9-.9V1.5h20.4c.6,0,1.1.5,1.1,1.1v17.1h-.1Z"/>
    <path class="st21" d="M-78,20.8h-19.6c-.6,0-1.1-.5-1.1-1.1V1.3h20.5c.7,0,1.3.6,1.3,1.3v17c0,.7-.5,1.2-1.1,1.2ZM-98.5,10.4v9.3c0,.5.4.9.9.9h19.6c.5,0,.9-.4.9-.9V2.6c0-.6-.5-1.1-1.1-1.1h-20.4v8.9h.1Z"/>
    <path class="st57" d="M-100.1,20.4h-63.9v-1h63.9s0,1,0,1Z"/>
    <path class="st21" d="M-153.1,4.9v7l-5.2-7h-5.1v12.8h4.5v-7.1l5.4,7.1h4.9V4.9h-4.5ZM-148.8,17.3h-4.5l-5.8-7.7v7.7h-3.9V5.2h4.7l5.6,7.6v-7.6h3.9v12.1ZM-134.6,8.1v-3.2h-12.8v12.8h12.8v-3.2h-8.1v-1.6h7.6v-3.2h-7.6v-1.6h8.1ZM-135.4,10v2.5h-7.6v2.2h8.1v2.6h-12.2V5.2h12.2v2.6h-8.1v2.2h7.6ZM-118.7,4.9l-1.7,7.3-2-7.3h-3.9l-2,7.3-1.7-7.3h-4.6l3.9,12.7h4.5l1.9-7.1,1.9,7.1h4.5l3.8-12.8h-4.6ZM-118.2,17.3h-4l-2.1-7.9-2.1,7.9h-4l-3.7-12.1h3.9l1.9,8.2,2.2-8.2h3.4l2.2,8.2,1.9-8.2h3.9l-3.5,12.1ZM-100.6,10.9c-.7-.6-1.6-.9-2.8-1.1-.3,0-.7-.1-1.2-.2s-1-.2-1.5-.2c-.5-.1-1-.2-1.5-.2-.5-.1-.9-.2-1.1-.2-.6-.1-.6-.4-.6-.4,0-.3,0-.5.4-.6.3-.2.8-.3,1.4-.3s.8,0,1.1,0c.3,0,.5,0,.7.3.2.1.3.2.4.3s0,.3.2.5v.3h5.2v-.3c0-.8-.3-1.4-.7-2-.4-.5-.9-1-1.6-1.3-.6-.3-1.4-.6-2.3-.7s-1.9-.2-3-.2-2.5,0-3.3.4c-.9.3-1.5.6-2,1s-.8.9-1,1.4-.3.9-.3,1.4c0,1,.3,1.8.9,2.5s1.5,1.1,2.9,1.3l4,.6c.7.1,1.1.2,1.4.4.2.1.3.2.3.4s0,.3,0,.5c0,.1-.2.2-.4.3-.2.1-.4.1-.6.2h-.7c-.5,0-.9,0-1.2-.1-.3-.1-.5-.1-.7-.3-.2-.1-.3-.2-.3-.4,0-.2,0-.3,0-.5v-.3h-5.4v.3c0,.9.3,1.7.7,2.2.4.6,1,1,1.7,1.3s1.5.5,2.4.6,1.8.2,2.9.2h1.1c.5,0,1-.1,1.5-.1.5-.1,1.1-.2,1.6-.4.6-.2,1.1-.4,1.5-.8.5-.3.8-.8,1.1-1.3.3-.5.4-1.2.4-1.9-.3-1.2-.7-2.1-1.4-2.7ZM-100.3,15.3c-.3.5-.6.9-1,1.2-.4.3-.9.5-1.4.7s-1,.3-1.6.4c-.5.1-1,.1-1.5.1h-1.1c-1,0-2-.1-2.8-.2-.9-.1-1.6-.3-2.3-.6-.6-.3-1.2-.7-1.5-1.2-.4-.5-.6-1.2-.7-2.1h4.8c0,.2,0,.4.2.6,0,.2.2.3.4.5.2.1.5.2.8.3s.8.1,1.3.1.5,0,.8-.1c.3,0,.5-.1.7-.2.2-.1.4-.2.5-.4s.2-.4.2-.6c0-.3,0-.5-.4-.7-.3-.1-.8-.3-1.5-.4l-4-.6c-1.2-.2-2.1-.6-2.7-1.2-.5-.6-.8-1.4-.8-2.3s0-.8.2-1.3c.2-.5.5-.9.9-1.2.5-.4,1.1-.7,1.9-1s1.9-.4,3.2-.4,2.1,0,3,.2,1.6.4,2.2.7c.6.3,1.1.7,1.5,1.2.4.5.6,1.1.6,1.8h-4.6c0-.2,0-.4-.2-.6,0-.2-.3-.3-.5-.5-.2,0-.5-.2-.8-.3-.3,0-.7,0-1.2,0s-1.2,0-1.6.3c-.4.2-.5.5-.5.9s.3.6.9.7c.2,0,.6.1,1.1.2.5.1,1,.2,1.5.2.5.1,1,.2,1.5.2.5.1.9.1,1.2.2,1.1.2,2,.6,2.7,1.1.6.5,1,1.3,1,2.4s0,1.5-.4,2Z"/>
    <path class="st60" d="M-163.1,5.2h4.7l5.6,7.6v-7.6h3.9v12.1h-4.5l-5.8-7.7v7.7h-3.9s0-12.1,0-12.1Z"/>
    <path class="st59" d="M-147.1,5.2h12.2v2.6h-8.1v2.2h7.6v2.5h-7.6v2.2h8.1v2.6h-12.2V5.2Z"/>
    <path class="st52" d="M-134.1,5.2h3.9l1.9,8.2,2.2-8.2h3.4l2.2,8.2,1.9-8.2h3.9l-3.6,12.1h-4l-2.1-7.9-2.1,7.9h-4l-3.6-12.1Z"/>
    <path class="st51" d="M-105,8.7c0-.2,0-.4-.2-.6,0-.2-.3-.3-.5-.5-.2,0-.5-.2-.8-.3-.3,0-.7,0-1.2,0s-1.2,0-1.6.3c-.4.2-.5.5-.5.9s.3.6.9.7c.2,0,.6.1,1.1.2.5.1,1,.2,1.5.2.5.1,1,.2,1.5.2.5.1.9.1,1.2.2,1.1.2,2,.6,2.7,1.1.6.5,1,1.3,1,2.4s0,1.3-.4,1.7c-.3.5-.6.9-1,1.2-.4.3-.9.5-1.4.7s-1,.3-1.6.4c-.5.1-1,.1-1.5.1h-1.1c-1,0-2-.1-2.8-.2-.9-.1-1.6-.3-2.3-.6-.6-.3-1.2-.7-1.5-1.2-.4-.5-.6-1.2-.7-2.1h4.8c0,.2,0,.4.2.6,0,.2.2.3.4.5.2.1.5.2.8.3s.8.1,1.3.1.5,0,.8-.1c.3,0,.5-.1.7-.2.2-.1.4-.2.5-.4s.2-.4.2-.6c0-.3,0-.5-.4-.7-.3-.1-.8-.3-1.5-.4l-4-.6c-1.2-.2-2.1-.6-2.7-1.2-.5-.6-.8-1.4-.8-2.3s0-.8.2-1.3c.2-.5.5-.9.9-1.2.5-.4,1.1-.7,1.9-1s1.9-.4,3.2-.4,2.1,0,3,.2,1.6.4,2.2.7c.6.3,1.1.7,1.5,1.2.4.5.6,1.1.6,1.8h-4.6v.3Z"/>
    <path class="st47" d="M-87.7.5c-6.2,0-11.2,4.9-11.2,10.8s5,10.8,11.2,10.8,11.2-4.9,11.2-10.8S-81.5.5-87.7.5ZM-88.1,20.2c-5.4,0-9.8-4.1-9.8-9.2s4.4-9.2,9.8-9.2,9.8,4.1,9.8,9.2-4.4,9.2-9.8,9.2Z"/>
    <path class="st21" d="M-87.7.4c-6.2,0-11.3,4.9-11.3,10.9s5.1,10.9,11.3,10.9,11.3-4.9,11.3-10.9S-81.4.4-87.7.4ZM-87.7,22.1c-6.1,0-11.1-4.8-11.1-10.8S-93.8.5-87.7.5s11.1,4.8,11.1,10.8c.1,5.9-4.9,10.8-11.1,10.8Z"/>
    <path class="st46" d="M-88.1,20.8c-5.8,0-10.5-4.4-10.5-9.8s4.7-9.8,10.5-9.8,10.5,4.4,10.5,9.8-4.7,9.8-10.5,9.8Z"/>
    <path class="st45" d="M-96.9,16.4c-1.1-1.5-1.7-3.4-1.7-5.4,0-5.4,4.7-9.8,10.5-9.8s9.5,3.5,10.3,8.1c-2-1.5-4.6-2.4-7.4-2.4-5.9,0-10.8,4.1-11.7,9.5h0Z"/>
    <path d="M-86.8,3.8c1-.7,2.4-1.5,3.6-1.8.3-.1.7,0,.6.3,0,0-.2.2-.5.4-.1,0-.4.2-.5.3-1.3.8-2.3,1.8-3.1,2.8-1.5,1.8-2.7,3.8-3.6,6-1,2.5-1.2,4.6-.6,6.3.2.6.4,1,.7,1.3s.8.4,1.4.1c1.2-.4,2-1.5,2.6-3.4.5-1.7.6-3,.3-4-.1-.4-.3-.7-.6-.9-.4-.3-.8-.3-1.3-.2-.5.2-1,.5-1.3.9-.5.6-.7,1-.8,1.2s-.3.1-.3,0,0-.7.9-1.7c.8-1,2.1-1.8,2.9-2,1.1-.4,2.1-.4,2.9,0,.8.3,1.4.9,1.7,1.8.6,2,.2,3.9-1.6,5.6-1.6,1.6-3.6,2.9-6.2,3.8-1.2.4-2.7.3-3.8,0-1.1-.3-1.8-1.1-2.2-2.1-.8-2.4.5-5.4,3.5-9.2,1.7-2.4,3.9-4.4,5.3-5.5h0Z"/>
    <path class="st48" d="M-82.9,1.8h-.2c-1.1.3-2.6,1-3.7,1.8-1.5,1.1-3.7,3.1-5.5,5.3-1.6,2-2.6,3.6-3.2,5.2-.6,1.6-.7,3-.3,4.2.4,1.1,1.2,1.9,2.3,2.3.6.2,1.3.3,2,.3s1.4-.1,2-.3c2.4-.8,4.4-2,6.3-3.8,1.8-1.7,2.3-3.7,1.6-5.8-.3-.9-.9-1.5-1.8-1.9-.4-.2-.9-.3-1.4-.3s-1.1.1-1.6.3c-.7.2-2.1,1-3,2.1-.8,1-.9,1.7-.9,1.9s.2.3.3.3.2,0,.3-.2c0-.1.1-.1.1-.2.1-.2.3-.5.7-1,.4-.4.8-.7,1.2-.8.2,0,.3-.1.4-.1.2,0,.4.1.6.2.2.2.4.5.5.8.3.9.2,2.2-.3,3.9-.5,1.8-1.4,2.9-2.5,3.3-.2.1-.4.1-.6.1s-.4-.1-.6-.2c-.3-.3-.5-.7-.7-1.2-.5-1.6-.3-3.7.6-6.1.8-2.2,2-4.2,3.6-5.9,1-1.2,2-2.1,3.1-2.7.1,0,.2,0,.3-.2.1,0,.2,0,.2,0,.1,0,.2,0,.2,0,.2,0,.3-.2.4-.3v-.4c0-.4-.3-.4-.4-.4h0Z"/>
    <path class="st21" d="M-82.9,2c.2,0,.5,0,.4.3,0,0-.2.2-.5.4-.1,0-.4.2-.5.3-1.3.8-2.3,1.8-3.1,2.8-1.5,1.8-2.7,3.8-3.6,6-1,2.5-1.2,4.6-.6,6.3.2.6.4,1,.7,1.3.2.2.4.3.7.3s.4,0,.7-.1c1.2-.4,2-1.5,2.6-3.4.5-1.7.6-3,.3-4-.1-.4-.3-.7-.6-.9-.2-.2-.5-.2-.8-.2s-.3,0-.5.1c-.5.2-1,.5-1.3.9-.5.6-.7,1-.8,1.2q-.1.1-.2.1c0,0-.1-.1-.1-.2s0-.7.9-1.7c.8-1,2.1-1.8,2.9-2,.6-.2,1.1-.3,1.6-.3s.9.1,1.3.3c.8.3,1.4.9,1.7,1.8.6,2,.2,3.9-1.6,5.6-1.6,1.6-3.6,2.9-6.2,3.8-.6.2-1.2.3-1.9.3s-1.4-.1-1.9-.3c-1.1-.3-1.8-1.1-2.2-2.1-.8-2.4.5-5.4,3.5-9.2,1.8-2.2,4-4.2,5.4-5.3,1-.7,2.4-1.5,3.6-1.8-.1-.3,0-.3.1-.3M-82.9,1.8h-.2c-1.1.3-2.6,1-3.7,1.8-1.5,1.1-3.7,3.1-5.5,5.3-1.6,2-2.6,3.6-3.2,5.2s-.7,3-.3,4.2c.4,1.1,1.2,1.9,2.3,2.3.6.2,1.3.3,2,.3s1.4-.1,2-.3c2.4-.8,4.4-2,6.3-3.8,1.8-1.7,2.3-3.7,1.6-5.8-.3-.9-.9-1.5-1.8-1.9-.4-.2-.9-.3-1.4-.3s-1.1.1-1.6.3c-.7.2-2.1,1-3,2.1-.8,1-.9,1.7-.9,1.9s.2.3.3.3.2,0,.3-.2c0-.1.1-.1.1-.2.1-.2.3-.5.7-1,.4-.4.8-.7,1.2-.8.2,0,.3-.1.4-.1.2,0,.4.1.6.2.2.2.4.5.5.8.3.9.2,2.2-.3,3.9-.5,1.8-1.4,2.9-2.5,3.3-.2.1-.4.1-.6.1s-.4-.1-.6-.2c-.3-.3-.5-.7-.7-1.2-.5-1.6-.3-3.7.6-6.1.8-2.2,2-4.2,3.6-5.9,1-1.2,2-2.1,3.1-2.7.1,0,.2,0,.3-.2.1,0,.2,0,.2,0,.1,0,.2,0,.2,0,.2,0,.3-.2.4-.3v-.4c0-.4-.3-.4-.4-.4h0Z"/>
  </g>
  <path class="st24" d="M155.9,30H44.8c-1.3,0-2.4-1.1-2.4-2.4V2.4c0-1.3,1.1-2.4,2.4-2.4h111.1c1.3,0,2.4,1.1,2.4,2.4v25.2c0,1.3-1.1,2.4-2.4,2.4Z"/>
  <g>
    <path d="M52.2,4.7h0c0,0-1.4,0-1.4,0h0c-.2-.9-.7-1.4-1.6-1.4s-1.9.9-1.9,2.5.8,2.5,1.9,2.5,1.4-.5,1.6-1.4h0c0,0,1.4,0,1.4,0h0c-.2,1.5-1.3,2.5-3.1,2.5s-3.3-1.3-3.3-3.5,1.4-3.5,3.4-3.5,2.9,1,3,2.3Z"/>
    <path d="M54.7,7.2l-.7,2h-1.5l2.5-6.7h1.7l2.5,6.7h-1.5l-.7-2h-2.3ZM55,6.1h1.6l-.8-2.5-.8,2.5Z"/>
    <path d="M64.3,9.2l-2.9-5.1c0,.7,0,1.5,0,2.1v3h-1.4V2.5h1.9l2.9,5.2c0-.7,0-1.5,0-2.1v-3.1h1.4v6.7s-1.9,0-1.9,0Z"/>
    <path d="M69.2,7.2l-.7,2h-1.5l2.5-6.7h1.7l2.5,6.7h-1.5l-.7-2h-2.3ZM69.6,6.1h1.6l-.8-2.5-.8,2.5Z"/>
    <path d="M75.8,9.2l-2.5-6.7h1.5l1.9,5.7,1.9-5.7h1.5l-2.5,6.7h-1.7Z"/>
    <path d="M85.9,9.2h-5V2.5h4.9v1.1h-3.5v1.8h3.3v1.1h-3.3v1.8h3.6v1.1Z"/>
    <path d="M92.7,9.2h-1.5c-.2-.5-.3-.9-.3-1.5,0-.7-.4-1.2-.9-1.2-.2,0-.4,0-.5,0h-.8v2.7h-1.4V2.5h2.5c.4,0,.7,0,1,0,1,.1,1.8.6,1.8,1.8s-.5,1.4-1.4,1.6c.7.3,1,.8,1,1.6,0,.8.2,1.3.5,1.7ZM89.5,5.5c.2,0,.4,0,.6,0,.6,0,1-.3,1-1s-.4-.9-.9-1c-.2,0-.3,0-.6,0h-1v2h1Z"/>
    <path d="M95.2,7.2l-.7,2h-1.5l2.5-6.7h1.7l2.5,6.7h-1.5l-.7-2h-2.3ZM95.5,6.1h1.6l-.8-2.5-.8,2.5Z"/>
    <path d="M105.6,9.2h-5V2.5h1.4v5.6h3.6v1.1Z"/>
    <path class="st13" d="M54.5,14.4v13h-3.2v-13h-5.4v-2.4h14v2.4h-5.4Z"/>
    <path class="st15" d="M93.2,19.4c0,4.7-2.9,7.4-6.6,7.8-.8,0-1.2,0-2,0h-5.5v-15.4h5.5c.9,0,1.2,0,2,0,3.7.4,6.6,2.7,6.6,7.4ZM89.9,19.5c0-3-1.5-4.8-3.9-5-.5,0-1,0-1.7,0h-1.9v10.6h1.9c.7,0,1.2,0,1.7,0,2.4-.3,4-2.2,4-5.4Z"/>
    <path class="st14" d="M98.8,22.7l-1.6,4.6h-3.4l5.8-15.4h4l5.6,15.4h-3.5l-1.6-4.6h-5.4ZM99.6,20.3h3.7l-1.9-5.7-1.9,5.7Z"/>
    <path class="st16" d="M116.2,27.4h-3.2v-6l-5.6-9.4h3.6l3.7,6.7,3.6-6.7h3.5l-5.6,9.4v6Z"/>
    <path d="M124.2,26.6c0,.5-.4.9-1.1.9s-1.1-.4-1.1-.9.4-.9,1.1-.9,1.1.4,1.1.9Z"/>
    <path d="M133.6,22.4h0c0,.1-1.8.1-1.8.1h0c-.2-1-.9-1.6-2.1-1.6s-2.4,1-2.4,2.7,1,2.8,2.4,2.8,1.8-.6,2.1-1.5h0c0-.1,1.8-.1,1.8-.1h0c-.2,1.7-1.7,2.7-4,2.7s-4.2-1.5-4.2-3.8,1.9-3.9,4.3-3.9,3.7,1.1,3.9,2.6Z"/>
    <path d="M143.6,23.7c0,2.3-1.7,3.9-4.4,3.9s-4.4-1.5-4.4-3.9,1.7-3.9,4.4-3.9,4.4,1.5,4.4,3.9ZM141.7,23.7c0-1.7-1-2.8-2.5-2.8s-2.6,1-2.6,2.8,1,2.8,2.6,2.8,2.5-1,2.5-2.8Z"/>
    <path d="M154.9,27.4h-1.8v-3.4c0-.8,0-1.8,0-2.5-.2.8-.5,1.8-.8,2.5l-1.3,3.4h-2l-1.3-3.5c-.3-.8-.6-1.7-.8-2.5,0,.8,0,1.8,0,2.5v3.4h-1.8v-7.4h2.8l2,6.1,2-6.1h2.8v7.4Z"/>
    <g>
      <path class="st44" d="M68.2,26.5c-1.1,0-2.1-.1-3-.4-.9-.3-1.6-.5-2.1-.9-.6-.4-1.1-.8-1.5-1.3s-.6-1-.9-1.5c-.3-.5-.4-1.1-.4-1.6-.1-.5-.1-1-.1-1.5s0-1,.1-1.5c.1-.5.3-1.1.4-1.6.3-.5.5-1,.9-1.5.4-.5.9-.9,1.5-1.3s1.3-.6,2.1-.9l.3,11.6,2.9-1.9,1.6,4.4c-.6-.1-1.3-.1-1.8-.1Z"/>
      <path class="st1" d="M65,12.6l.3,11.1v.6l.5-.4,2.4-1.5,1.5,3.9c-.5,0-1,.1-1.5.1-1.1,0-2.1-.1-3-.4-.9-.3-1.5-.5-2.1-.9-.6-.4-1-.8-1.4-1.3s-.6-1-.9-1.5c-.3-.5-.4-1-.4-1.6-.1-.5-.1-1-.1-1.5s0-1,.1-1.5c.1-.5.3-1,.4-1.6.3-.5.5-1,.9-1.5.4-.5.9-.9,1.4-1.3.6-.3,1.3-.5,2-.8M65.2,12.2h-.1c-.9.3-1.6.5-2.3.9-.6.4-1.1.9-1.5,1.4s-.6,1-.9,1.6c-.3.5-.4,1.1-.4,1.6-.1.6-.1,1.1-.1,1.6s0,1,.1,1.5c.1.5.3,1.1.4,1.6.3.5.5,1.1.9,1.6s.9,1,1.5,1.4c.6.4,1.4.8,2.3.9.9.3,1.9.4,3.1.4s1.4,0,1.9-.1l-1.9-4.8-2.8,1.8s-.3-11.5-.3-11.5Z"/>
      <path class="st19" d="M69.6,21.5l3.4-1.4-7.4-7.8c.8-.1,1.6-.3,2.6-.3s2.1.1,3,.4c.9.3,1.6.5,2.1.9.6.4,1.1.8,1.5,1.3s.6,1,.9,1.5c.3.5.4,1.1.4,1.6.1.5.1,1,.1,1.5s0,1-.1,1.5c-.1.5-.3,1.1-.4,1.6-.3.5-.5,1-.9,1.5-.4.5-.9.9-1.5,1.3-.5.4-1.3.6-2,.9,0,0-1.8-4.5-1.8-4.5Z"/>
      <path class="st1" d="M68.2,12.2c1.1,0,2.1.1,3,.4.9.3,1.5.5,2.1.9.6.4,1,.8,1.4,1.3s.6,1,.9,1.5c.3.5.4,1,.4,1.6.1.5.1,1,.1,1.5s0,1-.1,1.5c-.1.5-.3,1-.4,1.6-.3.5-.5,1-.9,1.5-.4.5-.9.9-1.4,1.3-.5.4-1.1.6-1.9.8l-1.6-4.5,3-1.3h.5c0-.1-.4-.5-.4-.5l-7.1-7.4c.6,0,1.4-.1,2.3-.1M68.2,11.9c-1.1,0-2,.1-2.9.3l7.4,7.8-3.3,1.4,1.9,5c.9-.3,1.6-.5,2.3-.9.6-.4,1.1-.9,1.5-1.4s.6-1,.9-1.6c.3-.5.4-1.1.4-1.6.1-.5.1-1.1.1-1.5s0-1-.1-1.5c-.1-.5-.3-1.1-.4-1.6-.3-.5-.5-1.1-.9-1.6s-.9-1-1.5-1.4c-.6-.4-1.4-.8-2.3-.9-1-.4-2-.4-3.1-.4Z"/>
    </g>
  </g>
</svg>